<svg xmlns="http://www.w3.org/2000/svg" xmlns:xlink="http://www.w3.org/1999/xlink" xmlns:lucid="lucid" width="1740" height="1160"><g transform="translate(-39.999999999999886 -160)" lucid:page-tab-id="0_0"><path d="M0 0h1870.4v1323.2H0z" fill="#fff"/><path d="M60 242c0-16.57 13.43-30 30-30h1640c16.57 0 30 13.43 30 30v1028c0 16.57-13.43 30-30 30H90c-16.57 0-30-13.43-30-30z" stroke="#474747" fill-opacity="0"/><path d="M168 214.4v3.54c0 6.42-7.1 13.05-15.76 13.05h-46.48C97.1 231 90 224.35 90 217.93v-3.54z" fill="#9d5125"/><path d="M120.03 180c8.03 0 14.82 4.4 18.17 11.67 4.6-3.14 10.92-1.98 14.04 2.65 1.17 1.64 1.7 3.32 1.8 5.3 7.87.68 13.95 8.25 13.95 14.27v1.3c0 6.45-7.1 13-15.76 13h-46.5c-8.64 0-15.74-6.55-15.74-13v-1.3c0-5.02 4.2-11.87 10.06-13.56v-.57c.08-10.95 8.97-19.82 19.97-19.77z" fill="#f58535"/><path d="M109.54 203.13l-5.2 18.2h3.04l1.17-4.43h5.38l1.1 4.43h3.05l-4.8-18.2zm-.47 11.4l2.22-8.98 2.1 8.97zM131.2 217.34h-.03l-2.47-14.2h-3.1l-2.4 14.13h-.06l-2.4-14.14h-2.95l3.53 18.2h3.38l2.35-13.7h.06l2.36 13.7h3.4l3.64-18.2h-2.9l-2.4 14.2zM145.9 211.4l-1.98-.72c-1.93-.7-2.74-1.53-2.74-3.1-.17-1.26.74-2.43 2-2.6.16-.02.3-.02.45-.02 1.26-.17 2.4.72 2.58 1.96.04.25.03.44 0 .68v.38h2.93v-.4c0-1.9-.5-4.8-5.18-4.8-3.44 0-5.7 1.84-5.7 5.16 0 2.6 1.1 3.97 3.82 5l2 .68c1.6.23 2.73 1.6 2.64 3.2.04 1.45-1.08 2.64-2.5 2.68h-.28c-2 0-3-1.12-3-3.33v-.47h-2.9v.44c0 2.54 1.02 5.53 5.52 5.53 3.7 0 6.07-1.6 6.07-5.48.04-2.5-1.1-3.9-3.7-4.8z" fill="#fff"/><use xlink:href="#a" transform="matrix(1,0,0,1,59.999999999999886,1270) translate(792.1296296296297 11.11111111111111)"/><use xlink:href="#b" transform="matrix(1,0,0,1,59.999999999999886,1270) translate(848.7962962962963 11.11111111111111)"/><path d="M120 402c0-16.57 13.43-30 30-30h1520c16.57 0 30 13.43 30 30v808c0 16.57-13.43 30-30 30H150c-16.57 0-30-13.43-30-30z" stroke="#474747" fill-opacity="0"/><path d="M228 374.4v3.54c0 6.42-7.1 13.05-15.76 13.05h-46.48c-8.66 0-15.75-6.64-15.75-13.06v-3.54z" fill="#9d5125"/><path d="M180.03 340c8.03 0 14.82 4.4 18.17 11.67 4.6-3.14 10.92-1.98 14.04 2.65 1.17 1.64 1.7 3.32 1.8 5.3 7.87.68 13.95 8.25 13.95 14.27v1.3c0 6.45-7.1 13-15.76 13h-46.5c-8.64 0-15.74-6.55-15.74-13v-1.3c0-5.02 4.2-11.87 10.06-13.56v-.57c.08-10.95 8.97-19.82 19.97-19.77z" fill="#f58535"/><path d="M168.9 363.13h3.08l3.1 14.58 3.32-14.54h3.1l-4.6 18.2h-3.7zM183.37 363.13h5.77c3.5 0 5.04 2.2 5.04 5.3 0 3.1-1.9 5.4-5.33 5.4h-2.57v7.53h-2.9zm2.9 8.5h2.08c1.56 0 2.9-.83 2.9-3.14 0-1.98-.78-3.17-3.1-3.17h-1.87zM207.8 374.83v.38c0 3.32-1.3 6.52-5.6 6.52-4.6 0-6.04-2.97-6.04-9.47s1.43-9.46 6.05-9.46c5.2 0 5.54 3.8 5.54 5.7v.37h-2.9v-.3c0-1.7-.5-3.64-2.6-3.57-2.08.08-3.1 1.35-3.1 7.22 0 5.87.92 7.3 3.14 7.3 2.42 0 2.7-2.7 2.7-4.42v-.3z" fill="#fff"/><use xlink:href="#c" transform="matrix(1,0,0,1,119.99999999999989,1210) translate(701.7901234567901 11.11111111111111)"/><use xlink:href="#d" transform="matrix(1,0,0,1,119.99999999999989,1210) translate(753.5802469135801 11.11111111111111)"/><use xlink:href="#e" transform="matrix(1,0,0,1,119.99999999999989,1210) translate(767.0987654320987 11.11111111111111)"/><path d="M320 430c0-16.57 13.43-30 30-30h1160c16.57 0 30 13.43 30 30v298.4c0 16.57-13.43 30-30 30H350c-16.57 0-30-13.43-30-30z" fill-opacity="0"/><path d="M335.04 404.1l3.17-1.7 4.72-1.56 4.93-.76L350 400h14.87m14.87 0h29.75m14.86 0h29.74m14.87 0h29.75m14.87 0h29.73m14.88 0h29.75m14.87 0h29.74m14.88 0h29.74m14.87 0h29.74m14.87 0h29.74m14.88 0h29.75m14.87 0h29.74m14.87 0h29.76m14.87 0h29.74m14.87 0h29.75m14.86 0h29.74m14.87 0h29.75m14.87 0h29.73m14.88 0h29.75m14.87 0h29.74m14.88 0h29.74m14.87 0h29.74m14.87 0h29.74m14.88 0h29.75m14.87 0h29.74m14.87 0h29.76m14.87 0H1510l5 .42 4.82 1.22 4.54 2 .6.42m10.95 10.98l1.7 3.17 1.56 4.72.76 4.93.08 2.15v14.2m0 14.22v28.42m0 14.2v28.43m0 14.2v28.43m0 14.2v28.42m0 14.2v28.43m0 14.2V700m0 14.2v14.22l-.42 5-1.22 4.82-2 4.54-.42.6m-10.98 10.95l-3.17 1.7-4.72 1.56-4.93.76-2.15.08h-14.87m-14.87 0h-29.75m-14.86 0h-29.74m-14.87 0h-29.75m-14.87 0h-29.73m-14.88 0h-29.75m-14.87 0h-29.74m-14.88 0h-29.74m-14.87 0h-29.74m-14.87 0h-29.74m-14.88 0h-29.75m-14.87 0h-29.74m-14.87 0h-29.76m-14.87 0h-29.74m-14.87 0H870.5m-14.86 0H825.9m-14.87 0h-29.75m-14.87 0h-29.73m-14.88 0h-29.75m-14.87 0h-29.74m-14.88 0h-29.74m-14.87 0H558.2m-14.87 0H513.6m-14.88 0h-29.75m-14.87 0h-29.74m-14.87 0h-29.76m-14.87 0H350l-5-.42-4.82-1.22-4.54-2-.6-.42m-10.95-10.98l-1.7-3.17-1.56-4.72-.76-4.93-.08-2.15v-14.2m0-14.22v-28.42m0-14.2v-28.43m0-14.2V586.3m0-14.2v-28.42m0-14.2v-28.43m0-14.2V458.4m0-14.2V430l.42-5 1.22-4.82 2-4.54.42-.6" stroke="#f7981f" stroke-width="3" fill="none"/><use xlink:href="#f" transform="matrix(1,0,0,1,319.9999999999998,728.4000000000001) translate(521.1111111111111 12.000000000000002)"/><use xlink:href="#g" transform="matrix(1,0,0,1,319.9999999999998,728.4000000000001) translate(631.3333333333333 12.000000000000002)"/><use xlink:href="#h" transform="matrix(1,0,0,1,319.9999999999998,728.4000000000001) translate(684.5 12.000000000000002)"/><path d="M320 850c0-16.57 13.43-30 30-30h1160c16.57 0 30 13.43 30 30v320c0 16.57-13.43 30-30 30H350c-16.57 0-30-13.43-30-30z" fill-opacity="0"/><path d="M335.04 824.1l3.17-1.7 4.72-1.56 4.93-.76L350 820h14.87m14.87 0h29.75m14.86 0h29.74m14.87 0h29.75m14.87 0h29.73m14.88 0h29.75m14.87 0h29.74m14.88 0h29.74m14.87 0h29.74m14.87 0h29.74m14.88 0h29.75m14.87 0h29.74m14.87 0h29.76m14.87 0h29.74m14.87 0h29.75m14.86 0h29.74m14.87 0h29.75m14.87 0h29.73m14.88 0h29.75m14.87 0h29.74m14.88 0h29.74m14.87 0h29.74m14.87 0h29.74m14.88 0h29.75m14.87 0h29.74m14.87 0h29.76m14.87 0H1510l5 .42 4.82 1.22 4.54 2 .6.42m10.95 10.98l1.7 3.17 1.56 4.72.76 4.93.08 2.15v15.24m0 15.24v30.47m0 15.24v30.47m0 15.23v30.48m0 15.24v30.48m0 15.23v30.48m0 15.25v30.47m0 15.24V1170l-.42 5-1.22 4.82-2 4.54-.42.6m-10.98 10.95l-3.17 1.7-4.72 1.56-4.93.76-2.15.08h-14.87m-14.87 0h-29.75m-14.86 0h-29.74m-14.87 0h-29.75m-14.87 0h-29.73m-14.88 0h-29.75m-14.87 0h-29.74m-14.88 0h-29.74m-14.87 0h-29.74m-14.87 0h-29.74m-14.88 0h-29.75m-14.87 0h-29.74m-14.87 0h-29.76m-14.87 0h-29.74m-14.87 0H870.5m-14.86 0H825.9m-14.87 0h-29.75m-14.87 0h-29.73m-14.88 0h-29.75m-14.87 0h-29.74m-14.88 0h-29.74m-14.87 0H558.2m-14.87 0H513.6m-14.88 0h-29.75m-14.87 0h-29.74m-14.87 0h-29.76m-14.87 0H350l-5-.42-4.82-1.22-4.54-2-.6-.42m-10.95-10.98l-1.7-3.17-1.56-4.72-.76-4.93-.08-2.15v-15.24m0-15.24v-30.47m0-15.24v-30.47m0-15.23v-30.48m0-15.24V971.9m0-15.23V926.2m0-15.25v-30.47m0-15.24V850l.42-5 1.22-4.82 2-4.54.42-.6" stroke="#f7981f" stroke-width="3" fill="none"/><use xlink:href="#f" transform="matrix(1,0,0,1,319.9999999999998,1170) translate(521.1111111111111 12.000000000000002)"/><use xlink:href="#g" transform="matrix(1,0,0,1,319.9999999999998,1170) translate(631.3333333333333 12.000000000000002)"/><use xlink:href="#i" transform="matrix(1,0,0,1,319.9999999999998,1170) translate(684.5 12.000000000000002)"/><path d="M420 882c0-16.57 13.43-30 30-30h400c16.57 0 30 13.43 30 30v228c0 16.57-13.43 30-30 30H450c-16.57 0-30-13.43-30-30z" stroke="#474747" fill-opacity="0"/><path d="M481.97 840.24v-5.9c0-7.25-5.88-13.13-13.12-13.13-7.24 0-13.12 5.9-13.12 13.14v5.9h6.64v-5.9c0-3.58 2.9-6.5 6.48-6.5 3.57 0 6.48 2.92 6.48 6.5v5.9h6.64z" fill="#876a22"/><path d="M481.98 840.26h5.42v20.83H450v-20.84h5.72v-7.1c0-7.28 5.87-13.16 13.13-13.16 7.26 0 13.13 5.88 13.13 13.15v7.1zm-6.66 0v-7.1c0-3.6-2.88-6.5-6.47-6.5-3.6 0-6.47 2.9-6.47 6.5v7.1h12.94z" fill="#daa835"/><path d="M450 861.1h37.4v.9H450z" fill="#876a22"/><use xlink:href="#j" transform="matrix(1,0,0,1,419.9999999999999,1110) translate(162.6358024691358 -4.888888888888886)"/><use xlink:href="#k" transform="matrix(1,0,0,1,419.9999999999999,1110) translate(188.56172839506172 -4.888888888888886)"/><use xlink:href="#l" transform="matrix(1,0,0,1,419.9999999999999,1110) translate(235.14197530864197 -4.888888888888886)"/><use xlink:href="#m" transform="matrix(1,0,0,1,419.9999999999999,1110) translate(288.7222222222222 -4.888888888888886)"/><use xlink:href="#n" transform="matrix(1,0,0,1,419.9999999999999,1110) translate(178.14814814814815 13.777777777777779)"/><use xlink:href="#o" transform="matrix(1,0,0,1,419.9999999999999,1110) translate(204.07407407407408 13.777777777777779)"/><path d="M420 462c0-16.57 13.43-30 30-30h400c16.57 0 30 13.43 30 30v228c0 16.57-13.43 30-30 30H450c-16.57 0-30-13.43-30-30z" stroke="#474747" fill-opacity="0"/><path d="M481.97 420.24v-5.9c0-7.25-5.88-13.13-13.12-13.13-7.24 0-13.12 5.9-13.12 13.14v5.9h6.64v-5.9c0-3.58 2.9-6.5 6.48-6.5 3.57 0 6.48 2.92 6.48 6.5v5.9h6.64z" fill="#876a22"/><path d="M481.98 420.26h5.42v20.83H450v-20.84h5.72v-7.1c0-7.28 5.87-13.16 13.13-13.16 7.26 0 13.13 5.88 13.13 13.15v7.1zm-6.66 0v-7.1c0-3.6-2.88-6.5-6.47-6.5-3.6 0-6.47 2.9-6.47 6.5v7.1h12.94z" fill="#daa835"/><path d="M450 441.1h37.4v.9H450z" fill="#876a22"/><use xlink:href="#p" transform="matrix(1,0,0,1,419.9999999999999,690) translate(164.7962962962963 -4.888888888888886)"/><use xlink:href="#k" transform="matrix(1,0,0,1,419.9999999999999,690) translate(186.40123456790124 -4.888888888888886)"/><use xlink:href="#l" transform="matrix(1,0,0,1,419.9999999999999,690) translate(232.98148148148147 -4.888888888888886)"/><use xlink:href="#q" transform="matrix(1,0,0,1,419.9999999999999,690) translate(286.5617283950617 -4.888888888888886)"/><use xlink:href="#n" transform="matrix(1,0,0,1,419.9999999999999,690) translate(178.14814814814815 13.777777777777779)"/><use xlink:href="#r" transform="matrix(1,0,0,1,419.9999999999999,690) translate(204.07407407407408 13.777777777777779)"/><path d="M1010 882c0-16.57 13.43-30 30-30h400c16.57 0 30 13.43 30 30v228c0 16.57-13.43 30-30 30h-400c-16.57 0-30-13.43-30-30z" stroke="#474747" fill-opacity="0"/><path d="M1071.97 840.24v-5.9c0-7.25-5.88-13.13-13.12-13.13-7.24 0-13.12 5.9-13.12 13.14v5.9h6.64v-5.9c0-3.58 2.9-6.5 6.48-6.5 3.57 0 6.48 2.92 6.48 6.5v5.9h6.64z" fill="#876a22"/><path d="M1071.98 840.26h5.42v20.83H1040v-20.84h5.72v-7.1c0-7.28 5.87-13.16 13.13-13.16 7.26 0 13.13 5.88 13.13 13.15v7.1zm-6.66 0v-7.1c0-3.6-2.88-6.5-6.47-6.5-3.6 0-6.47 2.9-6.47 6.5v7.1h12.94z" fill="#daa835"/><path d="M1040 861.1h37.4v.9H1040z" fill="#876a22"/><use xlink:href="#s" transform="matrix(1,0,0,1,1010,1110) translate(172.57407407407408 -4.888888888888886)"/><use xlink:href="#l" transform="matrix(1,0,0,1,1010,1110) translate(225.2037037037037 -4.888888888888886)"/><use xlink:href="#m" transform="matrix(1,0,0,1,1010,1110) translate(278.78395061728395 -4.888888888888886)"/><use xlink:href="#t" transform="matrix(1,0,0,1,1010,1110) translate(191.11111111111111 13.777777777777779)"/><path d="M1000 462c0-16.57 13.43-30 30-30h400c16.57 0 30 13.43 30 30v228c0 16.57-13.43 30-30 30h-400c-16.57 0-30-13.43-30-30z" stroke="#474747" fill-opacity="0"/><path d="M1061.97 420.24v-5.9c0-7.25-5.88-13.13-13.12-13.13-7.24 0-13.12 5.9-13.12 13.14v5.9h6.64v-5.9c0-3.58 2.9-6.5 6.48-6.5 3.57 0 6.48 2.92 6.48 6.5v5.9h6.64z" fill="#876a22"/><path d="M1061.98 420.26h5.42v20.83H1030v-20.84h5.72v-7.1c0-7.28 5.87-13.16 13.13-13.16 7.26 0 13.13 5.88 13.13 13.15v7.1zm-6.66 0v-7.1c0-3.6-2.88-6.5-6.47-6.5-3.6 0-6.47 2.9-6.47 6.5v7.1h12.94z" fill="#daa835"/><path d="M1030 441.1h37.4v.9H1030z" fill="#876a22"/><use xlink:href="#u" transform="matrix(1,0,0,1,1000,690) translate(230 -42.222222222222214)"/><use xlink:href="#v" transform="matrix(1,0,0,1,1000,690) translate(230 -23.55555555555555)"/><use xlink:href="#w" transform="matrix(1,0,0,1,1000,690) translate(172.57407407407408 -4.888888888888886)"/><use xlink:href="#l" transform="matrix(1,0,0,1,1000,690) translate(225.2037037037037 -4.888888888888886)"/><use xlink:href="#q" transform="matrix(1,0,0,1,1000,690) translate(278.78395061728395 -4.888888888888886)"/><use xlink:href="#x" transform="matrix(1,0,0,1,1000,690) translate(191.11111111111111 13.777777777777779)"/><path d="M1160 500h60v60h-60v-60z" stroke="#fff" stroke-opacity="0" stroke-width="2" fill="#d86613"/><path d="M1208.4 532.4h-4v-1.6h4v-19.2h-19.22v4h-1.6v-4c0-.88.73-1.6 1.6-1.6h19.22c.88 0 1.6.72 1.6 1.6v19.2c0 .88-.72 1.6-1.6 1.6zM1190.8 550h-19.22c-.87 0-1.6-.72-1.6-1.6v-19.2c0-.88.73-1.6 1.6-1.6h4v1.6h-4v19.2h19.22v-4h1.6v4c0 .88-.72 1.6-1.6 1.6z" stroke="#fff" stroke-opacity="0" stroke-width="2" fill="#fff"/><path d="M1202.8 522.8v-1.6h-2.4c-.06-.85-.75-1.54-1.6-1.6v-2.4h-1.6v2.4h-2.4v-2.4h-1.6v2.4h-2.4v-2.4h-1.6v2.4h-2.4v-2.4h-1.6v2.4h-2.4v-2.4h-1.6v2.4c-.85.06-1.54.75-1.6 1.6h-2.4v1.6h2.4v2.4h-2.4v1.6h2.4v2.4h-2.4v1.6h2.4v2.4h-2.4v1.6h2.4v2.4h-2.4v1.6h2.4c.06.85.75 1.54 1.6 1.6v2.4h1.6v-2.4h2.4v2.4h1.6v-2.4h2.4v2.4h1.6v-2.4h2.4v2.4h1.6v-2.4h2.4v2.4h1.6v-2.4c.85-.06 1.54-.75 1.6-1.6h2.4v-1.6h-2.4v-2.4h2.4v-1.6h-2.4v-2.4h2.4v-1.6h-2.4v-2.4h2.4v-1.6h-2.4v-2.4zm-4 15.85c0 .08-.07.16-.15.16h-17.3c-.08 0-.16-.07-.16-.15v-17.3c0-.08.07-.16.15-.16h17.3c.08 0 .16.07.16.15z" stroke="#fff" stroke-opacity="0" stroke-width="2" fill="#fff"/><use xlink:href="#y" transform="matrix(1,0,0,1,1130,569) translate(28.089506172839513 12.444444444444441)"/><use xlink:href="#z" transform="matrix(1,0,0,1,1130,569) translate(30.358024691358032 31.1111111111111)"/><path d="M1260 500h60v60h-60v-60z" stroke="#fff" stroke-opacity="0" stroke-width="2" fill="#d86613"/><path d="M1308.4 532.4h-4v-1.6h4v-19.2h-19.22v4h-1.6v-4c0-.88.73-1.6 1.6-1.6h19.22c.88 0 1.6.72 1.6 1.6v19.2c0 .88-.72 1.6-1.6 1.6zM1290.8 550h-19.22c-.87 0-1.6-.72-1.6-1.6v-19.2c0-.88.73-1.6 1.6-1.6h4v1.6h-4v19.2h19.22v-4h1.6v4c0 .88-.72 1.6-1.6 1.6z" stroke="#fff" stroke-opacity="0" stroke-width="2" fill="#fff"/><path d="M1302.8 522.8v-1.6h-2.4c-.06-.85-.75-1.54-1.6-1.6v-2.4h-1.6v2.4h-2.4v-2.4h-1.6v2.4h-2.4v-2.4h-1.6v2.4h-2.4v-2.4h-1.6v2.4h-2.4v-2.4h-1.6v2.4c-.85.06-1.54.75-1.6 1.6h-2.4v1.6h2.4v2.4h-2.4v1.6h2.4v2.4h-2.4v1.6h2.4v2.4h-2.4v1.6h2.4v2.4h-2.4v1.6h2.4c.06.85.75 1.54 1.6 1.6v2.4h1.6v-2.4h2.4v2.4h1.6v-2.4h2.4v2.4h1.6v-2.4h2.4v2.4h1.6v-2.4h2.4v2.4h1.6v-2.4c.85-.06 1.54-.75 1.6-1.6h2.4v-1.6h-2.4v-2.4h2.4v-1.6h-2.4v-2.4h2.4v-1.6h-2.4v-2.4h2.4v-1.6h-2.4v-2.4zm-4 15.85c0 .08-.07.16-.15.16h-17.3c-.08 0-.16-.07-.16-.15v-17.3c0-.08.07-.16.15-.16h17.3c.08 0 .16.07.16.15z" stroke="#fff" stroke-opacity="0" stroke-width="2" fill="#fff"/><use xlink:href="#y" transform="matrix(1,0,0,1,1230,569) translate(28.089506172839513 12.444444444444441)"/><use xlink:href="#z" transform="matrix(1,0,0,1,1230,569) translate(30.358024691358032 31.1111111111111)"/><path d="M1260 900h60v60h-60v-60z" stroke="#fff" stroke-opacity="0" stroke-width="2" fill="#d86613"/><path d="M1308.4 932.4h-4v-1.6h4v-19.2h-19.22v4h-1.6v-4c0-.88.73-1.6 1.6-1.6h19.22c.88 0 1.6.72 1.6 1.6v19.2c0 .88-.72 1.6-1.6 1.6zM1290.8 950h-19.22c-.87 0-1.6-.72-1.6-1.6v-19.2c0-.88.73-1.6 1.6-1.6h4v1.6h-4v19.2h19.22v-4h1.6v4c0 .88-.72 1.6-1.6 1.6z" stroke="#fff" stroke-opacity="0" stroke-width="2" fill="#fff"/><path d="M1302.8 922.8v-1.6h-2.4c-.06-.85-.75-1.54-1.6-1.6v-2.4h-1.6v2.4h-2.4v-2.4h-1.6v2.4h-2.4v-2.4h-1.6v2.4h-2.4v-2.4h-1.6v2.4h-2.4v-2.4h-1.6v2.4c-.85.06-1.54.75-1.6 1.6h-2.4v1.6h2.4v2.4h-2.4v1.6h2.4v2.4h-2.4v1.6h2.4v2.4h-2.4v1.6h2.4v2.4h-2.4v1.6h2.4c.06.85.75 1.54 1.6 1.6v2.4h1.6v-2.4h2.4v2.4h1.6v-2.4h2.4v2.4h1.6v-2.4h2.4v2.4h1.6v-2.4h2.4v2.4h1.6v-2.4c.85-.06 1.54-.75 1.6-1.6h2.4v-1.6h-2.4v-2.4h2.4v-1.6h-2.4v-2.4h2.4v-1.6h-2.4v-2.4h2.4v-1.6h-2.4v-2.4zm-4 15.85c0 .08-.07.16-.15.16h-17.3c-.08 0-.16-.07-.16-.15v-17.3c0-.08.07-.16.15-.16h17.3c.08 0 .16.07.16.15z" stroke="#fff" stroke-opacity="0" stroke-width="2" fill="#fff"/><use xlink:href="#y" transform="matrix(1,0,0,1,1230,969) translate(28.089506172839513 12.444444444444441)"/><use xlink:href="#z" transform="matrix(1,0,0,1,1230,969) translate(30.358024691358032 31.1111111111111)"/><path d="M1160 900h60v60h-60v-60z" stroke="#fff" stroke-opacity="0" stroke-width="2" fill="#d86613"/><path d="M1208.4 932.4h-4v-1.6h4v-19.2h-19.22v4h-1.6v-4c0-.88.73-1.6 1.6-1.6h19.22c.88 0 1.6.72 1.6 1.6v19.2c0 .88-.72 1.6-1.6 1.6zM1190.8 950h-19.22c-.87 0-1.6-.72-1.6-1.6v-19.2c0-.88.73-1.6 1.6-1.6h4v1.6h-4v19.2h19.22v-4h1.6v4c0 .88-.72 1.6-1.6 1.6z" stroke="#fff" stroke-opacity="0" stroke-width="2" fill="#fff"/><path d="M1202.8 922.8v-1.6h-2.4c-.06-.85-.75-1.54-1.6-1.6v-2.4h-1.6v2.4h-2.4v-2.4h-1.6v2.4h-2.4v-2.4h-1.6v2.4h-2.4v-2.4h-1.6v2.4h-2.4v-2.4h-1.6v2.4c-.85.06-1.54.75-1.6 1.6h-2.4v1.6h2.4v2.4h-2.4v1.6h2.4v2.4h-2.4v1.6h2.4v2.4h-2.4v1.6h2.4v2.4h-2.4v1.6h2.4c.06.85.75 1.54 1.6 1.6v2.4h1.6v-2.4h2.4v2.4h1.6v-2.4h2.4v2.4h1.6v-2.4h2.4v2.4h1.6v-2.4h2.4v2.4h1.6v-2.4c.85-.06 1.54-.75 1.6-1.6h2.4v-1.6h-2.4v-2.4h2.4v-1.6h-2.4v-2.4h2.4v-1.6h-2.4v-2.4h2.4v-1.6h-2.4v-2.4zm-4 15.85c0 .08-.07.16-.15.16h-17.3c-.08 0-.16-.07-.16-.15v-17.3c0-.08.07-.16.15-.16h17.3c.08 0 .16.07.16.15z" stroke="#fff" stroke-opacity="0" stroke-width="2" fill="#fff"/><use xlink:href="#y" transform="matrix(1,0,0,1,1130,969) translate(28.089506172839513 12.444444444444441)"/><use xlink:href="#z" transform="matrix(1,0,0,1,1130,969) translate(30.358024691358032 31.1111111111111)"/><path d="M1040 490c0-16.57 13.43-30 30-30h340c16.57 0 30 13.43 30 30v560c0 16.57-13.43 30-30 30h-340c-16.57 0-30-13.43-30-30z" fill-opacity="0"/><path d="M1048.1 469.67l1.5-1.64m9.46-5.9l3.86-1.3 4.93-.75 2.15-.08h16.2m16.18 0h3.24m16.2 0h32.37m16.18 0h3.24m16.2 0h32.37m16.18 0h3.24m16.2 0h32.37m16.18 0h3.24m16.2 0h32.37m16.18 0h3.24m16.2 0H1410l5 .42 4.82 1.22 1.1.5m9.4 5.95l1.65 1.5m5.9 9.46l1.3 3.86.75 4.93.08 2.15v14.8m0 14.83v2.96m0 14.8v29.64m0 14.8v2.97m0 14.83v29.63m0 14.8v2.98m0 14.8v29.64m0 14.82v2.96m0 14.8v29.64m0 14.82v2.96m0 14.82v29.63m0 14.8v2.97m0 14.82v29.63m0 14.8v2.98m0 14.8v29.64m0 14.82v2.95m0 14.8v29.64m0 14.8v2.97m0 14.82v14.8l-.42 5-1.22 4.82-.5 1.1m-5.95 9.4l-1.5 1.65m-9.46 5.9l-3.86 1.3-4.93.75-2.15.08h-16.2m-16.18 0h-3.24m-16.2 0h-32.37m-16.18 0h-3.24m-16.2 0h-32.37m-16.18 0h-3.24m-16.2 0h-32.37m-16.18 0h-3.24m-16.2 0h-32.37m-16.18 0h-3.24m-16.2 0H1070l-5-.42-4.82-1.22-1.1-.5m-9.4-5.95l-1.65-1.5m-5.9-9.46l-1.3-3.86-.75-4.93-.08-2.15v-14.8m0-14.83v-2.96m0-14.8v-29.64m0-14.8v-2.97m0-14.83v-29.63m0-14.8v-2.98m0-14.8V848.5m0-14.82v-2.96m0-14.8V786.3m0-14.82v-2.96m0-14.82v-29.63m0-14.8v-2.97m0-14.82v-29.63m0-14.8v-2.98m0-14.8v-29.64m0-14.82v-2.95m0-14.8V537.4m0-14.8v-2.97m0-14.82V490l.42-5 1.22-4.82.5-1.1" stroke="#474747" stroke-width="3" fill="none"/><use xlink:href="#A" transform="matrix(1,0,0,1,1040,1050) translate(150.17283950617286 12.88888888888889)"/><use xlink:href="#B" transform="matrix(1,0,0,1,1040,1050) translate(191.65432098765433 12.88888888888889)"/><path d="M480 520h80v80h-80v-80z" stroke="#fff" stroke-opacity="0" stroke-width="2" fill="#d86613"/><path d="M544.54 563.2h-5.35v-2.12h5.34v-25.63H518.9v5.35h-2.1v-5.35c0-1.16.95-2.12 2.1-2.12h25.64c1.16 0 2.12.96 2.12 2.12v25.63c0 1.16-.96 2.12-2.12 2.12zM521.07 586.67h-25.63c-1.16 0-2.12-.96-2.12-2.12v-25.63c0-1.16.96-2.12 2.12-2.12h5.35v2.12h-5.36v25.63h25.63v-5.35h2.12v5.35c0 1.16-.97 2.12-2.13 2.12z" stroke="#fff" stroke-opacity="0" stroke-width="2" fill="#fff"/><path d="M537.07 550.4v-2.14h-3.2c-.08-1.13-1-2.05-2.13-2.12v-3.2h-2.15v3.2h-3.18v-3.2h-2.15v3.2h-3.2v-3.2h-2.13v3.2h-3.2v-3.2h-2.12v3.2h-3.2v-3.2h-2.16v3.2c-1.13.07-2.05 1-2.12 2.12h-3.2v2.15h3.2v3.22h-3.2v2.1h3.2v3.22h-3.2v2.12h3.2v3.2h-3.2v2.16h3.2v3.17h-3.2v2.14h3.2c.07 1.13 1 2.05 2.12 2.12v3.2h2.15v-3.2h3.22v3.2h2.1v-3.2h3.22v3.2h2.12v-3.2h3.2v3.2h2.16v-3.2h3.17v3.2h2.14v-3.2c1.13-.07 2.05-1 2.12-2.12h3.2v-2.15h-3.2v-3.18h3.2v-2.15h-3.2v-3.2h3.2v-2.13h-3.2v-3.2h3.2v-2.12h-3.2v-3.2zm-5.33 21.14c0 .1-.1.2-.2.2h-23.08c-.1 0-.2-.1-.2-.2v-23.08c0-.1.1-.2.2-.2h23.08c.1 0 .2.1.2.2z" stroke="#fff" stroke-opacity="0" stroke-width="2" fill="#fff"/><use xlink:href="#C" transform="matrix(1,0,0,1,450,609) translate(44.095679012345684 12.444444444444441)"/><use xlink:href="#D" transform="matrix(1,0,0,1,450,609) translate(30.311728395061742 31.1111111111111)"/><use xlink:href="#E" transform="matrix(1,0,0,1,450,609) translate(77.75617283950618 31.1111111111111)"/><path d="M480 890h80v80h-80v-80z" stroke="#fff" stroke-opacity="0" stroke-width="2" fill="#d86613"/><path d="M544.54 933.2h-5.35v-2.12h5.34v-25.63H518.9v5.35h-2.1v-5.35c0-1.16.95-2.12 2.1-2.12h25.64c1.16 0 2.12.96 2.12 2.12v25.63c0 1.16-.96 2.12-2.12 2.12zM521.07 956.67h-25.63c-1.16 0-2.12-.96-2.12-2.12v-25.63c0-1.16.96-2.12 2.12-2.12h5.35v2.12h-5.36v25.63h25.63v-5.35h2.12v5.35c0 1.16-.97 2.12-2.13 2.12z" stroke="#fff" stroke-opacity="0" stroke-width="2" fill="#fff"/><path d="M537.07 920.4v-2.14h-3.2c-.08-1.13-1-2.05-2.13-2.12v-3.2h-2.15v3.2h-3.18v-3.2h-2.15v3.2h-3.2v-3.2h-2.13v3.2h-3.2v-3.2h-2.12v3.2h-3.2v-3.2h-2.16v3.2c-1.13.07-2.05 1-2.12 2.12h-3.2v2.15h3.2v3.22h-3.2v2.1h3.2v3.22h-3.2v2.12h3.2v3.2h-3.2v2.16h3.2v3.17h-3.2v2.14h3.2c.07 1.13 1 2.05 2.12 2.12v3.2h2.15v-3.2h3.22v3.2h2.1v-3.2h3.22v3.2h2.12v-3.2h3.2v3.2h2.16v-3.2h3.17v3.2h2.14v-3.2c1.13-.07 2.05-1 2.12-2.12h3.2v-2.15h-3.2v-3.18h3.2v-2.15h-3.2v-3.2h3.2v-2.13h-3.2v-3.2h3.2v-2.12h-3.2v-3.2zm-5.33 21.14c0 .1-.1.2-.2.2h-23.08c-.1 0-.2-.1-.2-.2v-23.08c0-.1.1-.2.2-.2h23.08c.1 0 .2.1.2.2z" stroke="#fff" stroke-opacity="0" stroke-width="2" fill="#fff"/><use xlink:href="#C" transform="matrix(1,0,0,1,450,979) translate(44.095679012345684 12.444444444444441)"/><use xlink:href="#D" transform="matrix(1,0,0,1,450,979) translate(30.311728395061742 31.1111111111111)"/><use xlink:href="#E" transform="matrix(1,0,0,1,450,979) translate(77.75617283950618 31.1111111111111)"/><path d="M1080 510c0-16.57 13.43-30 30-30h260c16.57 0 30 13.43 30 30v120c0 16.57-13.43 30-30 30h-260c-16.57 0-30-13.43-30-30z" stroke="#474747" stroke-width="3" fill-opacity="0"/><path d="M1080 510c0-16.57 13.43-30 30-30h260c16.57 0 30 13.43 30 30v120c0 16.57-13.43 30-30 30h-260c-16.57 0-30-13.43-30-30z" fill="none"/><path d="M1095.04 484.1l3.17-1.7 4.72-1.56 4.93-.76 2.15-.08h14.44m14.45 0h28.88m14.44 0h28.9m14.44 0h28.88m14.45 0h28.88m14.44 0h28.9m14.44 0H1370l5 .42 4.82 1.22 4.54 2 .6.42m10.95 10.98l1.7 3.17 1.56 4.72.76 4.93.08 2.15v13.33m0 13.34v26.66m0 13.34v26.66m0 13.34V630l-.42 5-1.22 4.82-2 4.54-.42.6m-10.98 10.95l-3.17 1.7-4.72 1.56-4.93.76-2.15.08h-14.44m-14.45 0h-28.88m-14.44 0h-28.9m-14.44 0h-28.88m-14.45 0h-28.88m-14.44 0h-28.9m-14.44 0H1110l-5-.42-4.82-1.22-4.54-2-.6-.42m-10.95-10.98l-1.7-3.17-1.56-4.72-.76-4.93-.08-2.15v-13.33m0-13.34v-26.66m0-13.34v-26.66m0-13.34V510l.42-5 1.22-4.82 2-4.54.42-.6" stroke="red" stroke-width="3" fill="none"/><use xlink:href="#F" transform="matrix(1,0,0,1,1080,630) translate(83.67901234567903 12.88888888888889)"/><use xlink:href="#G" transform="matrix(1,0,0,1,1080,630) translate(156.37037037037038 12.88888888888889)"/><path d="M1080 910c0-16.57 13.43-30 30-30h260c16.57 0 30 13.43 30 30v100c0 16.57-13.43 30-30 30h-260c-16.57 0-30-13.43-30-30z" stroke="#474747" stroke-width="3" fill-opacity="0"/><path d="M1080 910c0-16.57 13.43-30 30-30h260c16.57 0 30 13.43 30 30v100c0 16.57-13.43 30-30 30h-260c-16.57 0-30-13.43-30-30z" fill="none"/><path d="M1095.04 884.1l3.17-1.7 4.72-1.56 4.93-.76 2.15-.08h14.44m14.45 0h28.88m14.44 0h28.9m14.44 0h28.88m14.45 0h28.88m14.44 0h28.9m14.44 0H1370l5 .42 4.82 1.22 4.54 2 .6.42m10.95 10.98l1.7 3.17 1.56 4.72.76 4.93.08 2.15v16.67m0 16.66v33.34m0 16.66V1010l-.42 5-1.22 4.82-2 4.54-.42.6m-10.98 10.95l-3.17 1.7-4.72 1.56-4.93.76-2.15.08h-14.44m-14.45 0h-28.88m-14.44 0h-28.9m-14.44 0h-28.88m-14.45 0h-28.88m-14.44 0h-28.9m-14.44 0H1110l-5-.42-4.82-1.22-4.54-2-.6-.42m-10.95-10.98l-1.7-3.17-1.56-4.72-.76-4.93-.08-2.15v-16.67m0-16.66v-33.34m0-16.66V910l.42-5 1.22-4.82 2-4.54.42-.6" stroke="red" stroke-width="3" fill="none"/><use xlink:href="#H" transform="matrix(1,0,0,1,1080,1010) translate(83.67901234567904 12.88888888888889)"/><use xlink:href="#I" transform="matrix(1,0,0,1,1080,1010) translate(156.37037037037038 12.88888888888889)"/><path d="M440 491.6c0-16.57 13.43-30 30-30h100c16.57 0 30 13.43 30 30V1070c0 16.57-13.43 30-30 30H470c-16.57 0-30-13.43-30-30z" fill-opacity="0"/><path d="M448.1 471.27l1.5-1.64m9.46-5.9l3.86-1.3 4.93-.75 2.15-.08h11.9m11.9 0h2.4m11.9 0h23.8m11.9 0h2.4m11.9 0H570l5 .42 4.82 1.22 1.1.5m9.4 5.95l1.65 1.5m5.9 9.46l1.3 3.86.75 4.93.08 2.15v15.3m0 15.3v3.06m0 15.3v30.6m0 15.3v3.07m0 15.3v30.6m0 15.3v3.07m0 15.3v30.6m0 15.3v3.06m0 15.3v30.6m0 15.3v3.07m0 15.3v30.6m0 15.3v3.07m0 15.3v30.6m0 15.3v3.06m0 15.3v30.6m0 15.3v3.07m0 15.3v30.6m0 15.3v3.07m0 15.3v15.3l-.42 5-1.22 4.82-.5 1.1m-5.95 9.4l-1.5 1.65m-9.46 5.9l-3.86 1.3-4.93.75-2.15.08h-11.9m-11.9 0h-2.4m-11.9 0h-23.8m-11.9 0h-2.4m-11.9 0H470l-5-.42-4.82-1.22-1.1-.5m-9.4-5.95l-1.65-1.5m-5.9-9.46l-1.3-3.86-.75-4.93-.08-2.15v-15.3m0-15.3v-3.06m0-15.3v-30.6m0-15.3v-3.07m0-15.3v-30.6m0-15.3v-3.07m0-15.3v-30.6m0-15.3v-3.06m0-15.3v-30.6m0-15.3v-3.07m0-15.3v-30.6m0-15.3V715m0-15.3v-30.6m0-15.3v-3.06m0-15.3v-30.6m0-15.3v-3.07m0-15.3v-30.6m0-15.3v-3.07m0-15.3v-15.3l.42-5 1.22-4.82.5-1.1" stroke="#474747" stroke-width="3" fill="none"/><use xlink:href="#A" transform="matrix(1,0,0,1,440,1070) translate(30.17283950617285 12.88888888888889)"/><use xlink:href="#B" transform="matrix(1,0,0,1,440,1070) translate(71.65432098765433 12.88888888888889)"/><path d="M460 510c0-16.57 13.43-30 30-30h60c16.57 0 30 13.43 30 30v160c0 16.57-13.43 30-30 30h-60c-16.57 0-30-13.43-30-30z" stroke="#474747" stroke-width="3" fill-opacity="0"/><path d="M460 510c0-16.57 13.43-30 30-30h60c16.57 0 30 13.43 30 30v160c0 16.57-13.43 30-30 30h-60c-16.57 0-30-13.43-30-30z" fill="none"/><path d="M475.04 484.1l3.17-1.7 4.72-1.56 4.93-.76L490 480h20m20 0h20l5 .42 4.82 1.22 4.54 2 .6.42m10.95 10.98l1.7 3.17 1.56 4.72.76 4.93.08 2.15v13.33m0 13.34v26.66m0 13.34v26.66m0 13.34v26.66m0 13.34V670l-.42 5-1.22 4.82-2 4.54-.42.6m-10.98 10.95l-3.17 1.7-4.72 1.56-4.93.76-2.15.08h-20m-20 0h-20l-5-.42-4.82-1.22-4.54-2-.6-.42m-10.95-10.98l-1.7-3.17-1.56-4.72-.76-4.93L460 670v-13.33m0-13.34v-26.66m0-13.34v-26.66m0-13.34v-26.66m0-13.34V510l.42-5 1.22-4.82 2-4.54.42-.6" stroke="red" stroke-width="3" fill="none"/><use xlink:href="#J" transform="matrix(1,0,0,1,460,670) translate(34.095679012345684 -4.888888888888886)"/><use xlink:href="#K" transform="matrix(1,0,0,1,460,670) translate(25.021604938271615 13.777777777777779)"/><path d="M470 890c0-16.57 13.43-30 30-30h40c16.57 0 30 13.43 30 30v140c0 16.57-13.43 30-30 30h-40c-16.57 0-30-13.43-30-30z" stroke="#474747" stroke-width="3" fill-opacity="0"/><path d="M470 890c0-16.57 13.43-30 30-30h40c16.57 0 30 13.43 30 30v140c0 16.57-13.43 30-30 30h-40c-16.57 0-30-13.43-30-30z" fill="none"/><path d="M485.04 864.1l3.17-1.7 4.72-1.56 4.93-.76L500 860h13.33m13.34 0H540l5 .42 4.82 1.22 4.54 2 .6.42m10.95 10.98l1.7 3.17 1.56 4.72.76 4.93.08 2.15v15.56m0 15.55v31.12m0 15.56v31.1m0 15.56V1030l-.42 5-1.22 4.82-2 4.54-.42.6m-10.98 10.95l-3.17 1.7-4.72 1.56-4.93.76-2.15.08h-13.33m-13.34 0H500l-5-.42-4.82-1.22-4.54-2-.6-.42m-10.95-10.98l-1.7-3.17-1.56-4.72-.76-4.93-.08-2.15v-15.56m0-15.55v-31.12m0-15.56v-31.1m0-15.56V890l.42-5 1.22-4.82 2-4.54.42-.6" stroke="red" stroke-width="3" fill="none"/><use xlink:href="#J" transform="matrix(1,0,0,1,470,1030) translate(24.095679012345684 -4.888888888888886)"/><use xlink:href="#K" transform="matrix(1,0,0,1,470,1030) translate(15.021604938271615 13.777777777777779)"/><path d="M815 976.38c0 18.55-16.8 33.6-37.5 33.6S740 994.94 740 976.4c0-18.56 16.8-33.62 37.5-33.62s37.5 15.06 37.5 33.62z" fill="#9d5025"/><path d="M815 973.62c0 18.55-16.8 33.62-37.5 33.62S740 992.16 740 973.6c0-18.56 16.8-33.62 37.5-33.62s37.5 15.06 37.5 33.62z" fill="#f58536"/><path d="M787.65 958h3.95v31.2h-3.95V958zM798.77 965.9l10.35 7.56-10.35 7.87V965.9z" fill="#fff"/><path d="M762.16 971.85l2.28 1.64-2.5 1.88h38.57v-3.53h-38.34zM761.93 959.78h29.67v-3.54h-29.43l2.25 1.64-2.5 1.9zM764.42 989.1l-2.5 1.9h29.68v-3.55h-29.43l2.25 1.64zM753.7 967.44l8.27 6.04-8.28 6.3v-12.34zM753.7 951.84l8.27 6.04-8.28 6.3v-12.34zM753.7 983.05l8.27 6.04-8.28 6.28v-12.33z" fill="#fff"/><use xlink:href="#L" transform="matrix(1,0,0,1,740,1010) translate(4.595679012345684 12.444444444444441)"/><use xlink:href="#M" transform="matrix(1,0,0,1,740,1010) translate(40.84876543209876 12.444444444444441)"/><use xlink:href="#N" transform="matrix(1,0,0,1,740,1010) translate(8.570987654320994 31.1111111111111)"/><path d="M815 561.38c0 18.55-16.8 33.6-37.5 33.6S740 579.94 740 561.4c0-18.56 16.8-33.62 37.5-33.62s37.5 15.06 37.5 33.62z" fill="#9d5025"/><path d="M815 558.62c0 18.55-16.8 33.62-37.5 33.62S740 577.16 740 558.6c0-18.56 16.8-33.62 37.5-33.62s37.5 15.06 37.5 33.62z" fill="#f58536"/><path d="M787.65 543h3.95v31.2h-3.95V543zM798.77 550.9l10.35 7.56-10.35 7.87V550.9z" fill="#fff"/><path d="M762.16 556.85l2.28 1.64-2.5 1.88h38.57v-3.53h-38.34zM761.93 544.78h29.67v-3.54h-29.43l2.25 1.64-2.5 1.9zM764.42 574.1l-2.5 1.9h29.68v-3.55h-29.43l2.25 1.64zM753.7 552.44l8.27 6.04-8.28 6.3v-12.34zM753.7 536.84l8.27 6.04-8.28 6.3v-12.34zM753.7 568.05l8.27 6.04-8.28 6.28v-12.33z" fill="#fff"/><use xlink:href="#O" transform="matrix(1,0,0,1,740,595) translate(4.595679012345684 12.444444444444443)"/><use xlink:href="#P" transform="matrix(1,0,0,1,740,595) translate(40.848765432098766 12.444444444444443)"/><use xlink:href="#Q" transform="matrix(1,0,0,1,740,595) translate(8.570987654320994 31.111111111111107)"/><path d="M998.5 560.06H833.43" stroke="#5e5e5e" stroke-width="2" fill="none"/><path d="M999.5 561.06h-1.03v-2h1.03z" fill="#5e5e5e"/><path d="M818.17 560.06l14.26-4.63v9.27z" stroke="#5e5e5e" stroke-width="2" fill="#5e5e5e"/><path d="M1008.5 980.06H833.26" stroke="#5e5e5e" stroke-width="2" fill="none"/><path d="M1009.5 981.06h-1.03v-2h1.03z" fill="#5e5e5e"/><path d="M818 980.06l14.26-4.63v9.27z" stroke="#5e5e5e" stroke-width="2" fill="#5e5e5e"/><path d="M880 752h120v24.25H880V752z" fill="#9d5025"/><path d="M880 749h120v23.6H880V749z" fill="#f58536"/><path d="M880 783.5h120v25.3H880v-25.3z" fill="#9d5025"/><path d="M880 781.56h120v23.6H880v-23.6z" fill="#f58536"/><path d="M880 815.47h120V840H880v-24.53z" fill="#9d5025"/><path d="M880 812.72h120v23.6H880v-23.6z" fill="#f58536"/><path d="M894.74 767.85h-2.68V757.4h-3.6v-1.47h.3c1.66 0 3.5-.32 4.03-2.15v-.28h1.94zm15.45-12.27c-3.2 3.8-4.85 7.65-5.36 12.27h-2.9c.63-4.56 2.38-8.33 5.68-12.02h-7.52v-2.08h10.1zm12.25 12.27h-10c0-6.26 7.22-6.1 7.22-10.57 0-1.2-.62-2.17-2.17-2.17-2.06 0-2.36 1.48-2.36 2.96h-2.58c0-2.87 1.34-4.64 5.05-4.64 2.38-.25 4.54 1.14 4.85 3.1v.74c0 4.77-5.56 5.07-6.9 8.6h6.9zm5.87 0h-2.78v-2.67h2.78zm10 0h-2.8V757.4h-3.6v-1.47h.3c1.66 0 3.62-.32 4.03-2.15v-.28h2.06zm10.3.28c-4.34 0-5.16-2.76-5.16-6.9 0-4.12.93-7.78 5.36-7.78 3.1 0 4.63 1.14 4.63 3.5h-2.68c0-.83-.5-1.87-1.85-1.87-2.58 0-2.68 2.86-2.68 4.96.72-1 1.96-1.55 3.3-1.48 2.37 0 4.22 1.48 4.22 4.28.1 3.33-1.55 5.3-5.15 5.3zm10.9-.28h-2.77v-2.67h2.78zm8.04.28c-3.3 0-5.15-1.74-5.15-7.37 0-5.64 1.76-7.38 5.16-7.38 3.3 0 5.05 1.75 5.05 7.38 0 5.6-1.74 7.4-5.04 7.4zm10.7-.28h-2.67v-2.67h2.78zm8.05.28c-3.3 0-5.14-1.74-5.14-7.37 0-5.64 1.85-7.38 5.15-7.38 3.4 0 5.16 1.75 5.16 7.38 0 5.6-1.75 7.4-5.05 7.4zM986.36 786.06c3.3 0 5.16 1.74 5.16 7.38s-1.76 7.38-5.16 7.38c-3.3 0-5.15-1.8-5.15-7.43s1.87-7.34 5.16-7.34zm-10.7 11.7h2.77v2.73h-2.9zm-12.38-9.26h.2c1.65 0 3.6-.33 4.02-2.16v-.28h2.07v14.43h-2.9V790h-3.5zm-6.5 9.26h2.8v2.73h-2.9zm-7.83-11.7c3 0 4.64 1.13 4.64 3.5h-2.9c0-.83-.4-1.88-1.75-1.88-2.57 0-2.68 2.86-2.68 4.96.62-1 1.86-1.55 3.3-1.47 2.37 0 4.23 1.47 4.23 4.3 0 3.3-1.65 5.27-5.26 5.27-4.33 0-5.15-2.76-5.15-6.9 0-4.13 1.02-7.78 5.55-7.78zm-16.9 2.44h.2c1.66 0 3.62-.33 4.03-2.16v-.28h2.06v14.43h-2.78V790h-3.6zm-6.5 9.26h2.8v2.73h-2.8zm-8.03-10.08c-2.06 0-2.37 1.48-2.37 2.95h-2.57c0-2.86 1.33-4.63 5.04-4.63 2.38-.25 4.54 1.15 4.75 3.1.1.26.1.48.1.73 0 4.78-5.57 5.08-6.9 8.6h6.9v2.06h-10c0-6.26 7.22-6.1 7.22-10.6 0-1.2-.63-2.22-2.18-2.22zm-17.4-1.34h10.08v1.83c-3.2 3.8-4.84 7.66-5.35 12.27h-2.9c.63-4.55 2.38-8.32 5.68-12.02h-7.52zm-11.56 2.16h.2c1.66 0 3.62-.33 4.03-2.16v-.28h2.05v14.43h-2.78V790h-3.6zM986.36 817.25c3.3 0 5.16 1.73 5.16 7.37 0 5.64-1.76 7.38-5.16 7.38-3.3 0-5.15-1.84-5.15-7.42s1.87-7.33 5.16-7.33zm-10.7 11.7h2.77v2.68h-2.9zm-8.05-10.08c-2.05 0-2.36 1.48-2.36 2.95h-2.68c0-2.87 1.44-4.63 5.05-4.63 2.38-.26 4.54 1.13 4.85 3.08v.74c0 4.76-5.56 5.07-6.9 8.6h7v2h-10c0-6.24 7.12-6.1 7.12-10.6 0-1.16-.52-2.15-2.06-2.15zm-10.8 10.07h2.77v2.7h-2.9zm-7.85-11.7c3 0 4.64 1.14 4.64 3.5h-2.9c0-.84-.4-1.87-1.75-1.87-2.57 0-2.68 2.86-2.68 4.95.62-1 1.86-1.54 3.3-1.47 2.37 0 4.23 1.47 4.23 4.3 0 3.32-1.65 5.28-5.26 5.28-4.33 0-5.15-2.76-5.15-6.9 0-4.13 1.02-7.78 5.55-7.78zm-16.9 2.44h.2c1.66 0 3.62-.32 4.03-2.15v-.28h2.06v14.38h-2.78v-10.48h-3.6zm-6.5 9.26h2.8v2.7h-2.8zm-8.03-10.07c-2.06 0-2.37 1.48-2.37 2.95h-2.57c0-2.87 1.33-4.63 5.04-4.63 2.38-.26 4.54 1.13 4.75 3.08.1.26.1.5.1.74 0 4.76-5.57 5.07-6.9 8.6h6.9v2h-10c0-6.24 7.22-6.1 7.22-10.6 0-1.16-.63-2.15-2.18-2.15zm-17.4-1.34h10.08v1.83c-3.2 3.8-4.84 7.65-5.35 12.27h-2.9c.63-4.56 2.38-8.33 5.68-12.02h-7.52zm-11.66 2.15h.3c1.66 0 3.62-.32 4.03-2.15v-.28h1.95v14.38h-2.68v-10.48h-3.6z" fill="#fff"/><path d="M967.53 755.32c-1.88 0-2.37 1.47-2.37 5.7 0 4.24.5 5.72 2.37 5.72 1.88 0 2.36-1.48 2.36-5.7 0-4.25-.5-5.72-2.37-5.72zM986.38 755.32c-1.88 0-2.36 1.47-2.36 5.7 0 4.24.48 5.72 2.36 5.72s2.36-1.48 2.36-5.7c0-4.25-.48-5.72-2.36-5.72zM986.38 799.3c1.88 0 2.36-1.46 2.36-5.7 0-4.23-.48-5.7-2.36-5.7s-2.36 1.47-2.36 5.7c0 4.24.46 5.7 2.36 5.7zM948.84 799.3c1.68 0 2.27-1.46 2.27-3.07 0-2-.7-3.1-2.26-3.1-2 0-2.36 1.46-2.36 3.2 0 1.74.68 2.98 2.36 2.98zM986.38 830.5c1.88 0 2.36-1.47 2.36-5.7 0-4.25-.48-5.72-2.36-5.72s-2.36 1.47-2.36 5.7c0 4.25.46 5.72 2.36 5.72zM948.84 830.5c1.68 0 2.27-1.48 2.27-3.1 0-1.98-.7-3.1-2.26-3.1-2 0-2.36 1.48-2.36 3.22 0 1.74.68 2.98 2.36 2.98zM948.84 766.74c1.68 0 2.27-1.48 2.27-3.1 0-1.98-.7-3.1-2.26-3.1-2 0-2.36 1.47-2.36 3.22 0 1.74.68 2.98 2.36 2.98z" fill="#f58536"/><use xlink:href="#R" transform="matrix(1,0,0,1,880,840) translate(18.07407407407409 14.222222222222221)"/><use xlink:href="#S" transform="matrix(1,0,0,1,880,840) translate(63.45679012345679 14.222222222222221)"/><path d="M940 841v113c0 3.3 2.7 6 6 6h74" stroke="#5e5e5e" stroke-width="2" fill="none"/><path d="M941 841.02h-2V840h2z" fill="#5e5e5e"/><path d="M1035.26 960l-14.26 4.64v-9.28z" stroke="#5e5e5e" stroke-width="2" fill="#5e5e5e"/><path d="M940 748V590c0-3.3 2.7-6 6-6h74" stroke="#5e5e5e" stroke-width="2" fill="none"/><path d="M941 749h-2v-1.03h2z" fill="#5e5e5e"/><path d="M1035.26 584l-14.26 4.64v-9.28z" stroke="#5e5e5e" stroke-width="2" fill="#5e5e5e"/><path d="M160 781.97c0 26.5-17.92 48.02-40 48.02s-40-21.53-40-48.03 17.92-48.03 40-48.03 40 21.52 40 48.02z" fill="#9d5025"/><path d="M80 778.02h80v3.94H80v-3.94z" fill="#9d5025"/><path d="M160 778.02c0 26.5-17.92 48.03-40 48.03s-40-21.52-40-48.02c0-26.5 17.92-48.03 40-48.03s40 21.52 40 48.02z" fill="#f58536"/><path d="M89.84 782.8v-1.25c.3-5.82 3-10.67 7.4-13.22.43-10.72 8.03-19 17-18.43 5.6.32 10.3 3.74 13.14 9.56 4.58-2.3 9.82.23 11.75 5.7.3.77.48 1.42.6 2.2 6.03 1.44 10.37 8.37 10.37 14.2v1.15c0 7.12-6.15 13.36-13.14 13.36h-34.04c-6.93.05-13.08-6.2-13.08-13.26z" fill="#fff"/><path d="M128.2 764.57l-2.56 2.1-1.3-3.37c-2-5.28-6.05-8.52-10.9-8.56h-.05c-6.63 0-12.05 6.48-12.05 14.5v2.7l-1.87.64c-3.18 1.53-5.27 4.88-5.53 9v1.16c0 3.9 3.96 8.4 9.02 8.4h34.08c5.1 0 9-4.5 9-8.4v-1.17c0-3.93-3.63-9.06-7.85-9.46l-2.3-.2-.15-2.74c0-1.17-.32-2.1-.84-3.06-1.5-2.66-4.52-3.3-6.7-1.5z" fill="#f58536"/><use xlink:href="#T" transform="matrix(1,0,0,1,80,830) translate(6.1388888888889 15.999999999999998)"/><use xlink:href="#U" transform="matrix(1,0,0,1,80,830) translate(2.8055555555555642 39.99999999999999)"/><path d="M280 781.97c0 26.5-17.92 48.02-40 48.02s-40-21.53-40-48.03 17.92-48.03 40-48.03 40 21.52 40 48.02z" fill="#9d5025"/><path d="M280 778.02c0 26.5-17.92 48.03-40 48.03s-40-21.52-40-48.02c0-26.5 17.92-48.03 40-48.03s40 21.52 40 48.02z" fill="#f58536"/><path d="M251.66 739.23v17.44h-23.34v-17.44h23.34zM269.72 789.7v14.2H257.9v-14.2h11.82zM254.77 789.7v14.2h-11.83v-14.2h11.83zM236.56 789.7v14.2h-11.82v-14.2h11.82zM221.6 789.7v14.2h-11.82v-14.2h11.82z" fill="#fff"/><path d="M214.62 777.4h2.13v13.94h-2.13V777.4z" fill="#fff"/><path d="M214.62 777.4h17.1v2.56h-17.1v-2.55z" fill="#fff"/><path d="M229.58 777.4h2.13v13.94h-2.12V777.4zM247.8 777.4h2.12v13.94h-2.13V777.4z" fill="#fff"/><path d="M247.8 777.4h17.08v2.56h-17.1v-2.55z" fill="#fff"/><path d="M262.75 777.4h2.13v13.94h-2.13V777.4zM222.12 767.46h2.13v11.22h-2.13v-11.22zM238.93 754.1h2.13v13.57h-2.13V754.1z" fill="#fff"/><path d="M222.12 766.4h35.32v2.54h-35.32v-2.55z" fill="#fff"/><path d="M255.3 767.46h2.14v11.22h-2.13v-11.22z" fill="#fff"/><g><use xlink:href="#V" transform="matrix(1,0,0,1,199.9999999999999,830) translate(-14.2283950617284 17.77777777777778)"/><use xlink:href="#W" transform="matrix(1,0,0,1,199.9999999999999,830) translate(15.308641975308642 44.44444444444444)"/><use xlink:href="#X" transform="matrix(1,0,0,1,199.9999999999999,830) translate(-3.7654320987654373 71.11111111111111)"/></g><path d="M131.03 730.88V566c0-3.3 2.68-6 6-6H461.5" stroke="#5e5e5e" stroke-width="2" fill="none"/><path d="M132.03 732.26l-1.63-.62-.37-.1v-.68h2z" fill="#5e5e5e"/><path d="M476.76 560l-14.26 4.64v-9.28z" stroke="#5e5e5e" stroke-width="2" fill="#5e5e5e"/><path d="M160.92 783.47h20.64" stroke="#5e5e5e" stroke-width="2" fill="none"/><path d="M160.95 784.47h-1.08l.1-2h.98z" fill="#5e5e5e"/><path d="M196.83 783.47l-14.27 4.63v-9.27z" stroke="#5e5e5e" stroke-width="2" fill="#5e5e5e"/><path d="M280.92 783.47H861.5" stroke="#5e5e5e" stroke-width="2" fill="none"/><path d="M280.95 784.47h-1.08l.1-2h.98z" fill="#5e5e5e"/><path d="M876.76 783.47l-14.26 4.63v-9.27z" stroke="#5e5e5e" stroke-width="2" fill="#5e5e5e"/><path d="M516.04 320c-10.83 0-28.1-2.46-28.3-9.1L480 253.7c-.14-.97.43-1.86 1.37-2.06.94-.14 1.88.47 2.1 1.43.8 3.28 13.65 7.86 32.64 7.86 19 0 31.87-4.58 32.66-7.86.22-.96 1.16-1.57 2.1-1.43.94.2 1.5 1.1 1.37 2.05l-7.87 57.2c0 2.26-2.1 4.18-6 5.75-1.8.68-3.4 1.16-5.27 1.57-5.93 1.3-11 1.78-17.06 1.78zm-31.92-61.66l6.93 52.3v.2c0 2.05 9.75 5.8 24.92 5.8 5.78.08 10.62-.47 16.25-1.63 1.73-.4 3.18-.88 4.84-1.56 3.1-1.23 3.83-2.33 3.83-2.67v-.2l7-52.23c-6.58 3.9-19.8 6-31.93 6-12.13 0-25.28-2.1-31.85-6z" stroke="#fff" stroke-opacity="0" fill="#3f8624"/><path d="M516.06 264.32c-16.15 0-34.25-3.65-35.98-10.4V252.98v-.23c0-7.52 19.03-12.77 36.12-12.77 17.1 0 35.98 5.25 35.98 12.77v.22l-.07.7v.2c-1.87 6.77-19.97 10.42-36.04 10.42zm-32.67-11.2c1.08 3.3 13.84 7.8 32.66 7.8 18.8 0 31.58-4.5 32.66-7.8v-.45c-.22-3.3-13.63-9.26-32.66-9.26-19.04 0-32.52 5.96-32.74 9.27zM552.23 287.86c-8.07 0-25.83-8-36.92-13.46l1.5-3.06c15.3 7.53 33.36 14.5 36.46 13.18-.24-.48-1.4-2.02-6.83-4.97l-.24-.17 1.68-2.96.25.17c5.47 2.98 8.07 5.3 8.53 7.5.16.93-.08 1.83-.7 2.57-1.04.95-2.32 1.36-3.73 1.2z" stroke="#fff" stroke-opacity="0" fill="#3f8624"/><path d="M516.05 276.6c-2.03 0-3.7-1.66-3.7-3.7s1.67-3.7 3.7-3.7c2.04 0 3.7 1.66 3.7 3.7s-1.66 3.7-3.7 3.7zm0-4c-.17 0-.3.14-.3.3 0 .33.6.33.6 0v-.04c0-.16-.13-.28-.3-.28z" stroke="#fff" stroke-opacity="0" fill="#3f8624"/><g><use xlink:href="#Y" transform="matrix(1,0,0,1,450,329) translate(24.598765432098773 14.222222222222221)"/></g><path d="M518.35 320.76V501.5" stroke="#5e5e5e" stroke-width="2" fill="none"/><path d="M519.35 320.78h-2v-.92l2-.2z" fill="#5e5e5e"/><path d="M518.35 516.76l-4.64-14.26h9.3z" stroke="#5e5e5e" stroke-width="2" fill="#5e5e5e"/><path d="M1287.6 289.07c-.4-.37-.7-.74-1-1.1-1.7-2.37-2.6-4.54-3.2-7.14-2.5-8.62-9.1-15.25-19.5-19.72-7.3-3.2-14.7-5.32-23.4-4.5-11.6 1.04-21.4 4.2-28.2 11.52-3.9 4.34-6.6 8.3-8.9 13.27-2.1 4.26-1.9 8.9-4.5 13.07-.6.87-1.2 1.55-1.9 2.35-1.8 2.05-4.2 3.9-5.5 6.08-3.2 5.4-1.4 8.5 5.7 11.16.8.25 1.5.5 2.3.74 8.3 2.42 27.8 5.46 39.8 2.1 3-.67 5.4-1.4 8.1-2.53 9.6-3.72 19.2-7.56 28.8-11.35 4.5-1.67 8.1-3.6 11.5-6.38 3.1-2.6 3-5.02-.1-7.57z" fill="#4b612c"/><path d="M1253.7 259.6c5.34 1.4 9.62 3.2 13.98 5.97 3.02 1.75 11.2 7.9 13.08 15.57.17 1.16.35 2.32.62 3.42.27.53.62.93 1.07 1.34l.97 1.8s1.78 2.1 2.76 3.08c1.25 1.28 1.7 2.55.36 3.83-3.12 2.92-7.12 4.95-12 6.8l.43-3.77-3.2-.7c-1.25 2.04-.45 3.55 2.58 4.65-2.85 1.1-5.43 2.1-7.92 3.02-7.74 3.02-15.4 6.1-23.14 9.06-5.97 2.27-11.75 3.2-18.42 3.08-7.75-.23-14.33-1.16-21.63-3.02-3.1-.87-5.7-4.47-4.7-6.74.43-1.1 2.03-1.8 3.55-1.57 5.42.42 10.85.88 16.28 1.35 5.96.52 12 1.5 17.97 1.5 6.86 0 13.35-1.5 19.76-3.42-1.95.12-3.9.18-5.78.3-5.42.28-10.76.4-16.1.92-6.67.64-12.9-.4-19.22-1.57-5.16-.8-9.25-2.84-12.2-6.04-1.15-1.27-1.86-2.67-.97-4 .7.46 1.5 1.33 2.05 1.28.62-.06 1.7-.82 2.04-1.46.8-1.56 1.34-3.2 1.96-4.82.98-3.08 2.05-5.7 3.47-8.7 2.76-5.12 5.78-10.23 10.5-14.64 1.78-1.75 3.47-3.14 5.78-4.6 2.76-1.8 6.4-2.37 10.06-2.66 4.17-.3 8.44-.12 12.8-.18.18 0 .45.18.7.24z" fill="#759c3e"/><path d="M1280.77 281.15c-.88-1.43-1.73-2.6-2.82-3.94-1-1-2.05-1.76-3.46-2.46-6.3-3.18-14.9-2.03-19.25 2.53-3.57 3.63-5.2 7.76-6.14 12.06-.28 1.3-.5 2.6-.8 4.25-1.88-2.33-2.72-4.64-2.76-7.34-.35-5.2.67-10.24 5.15-14.57 3.17-3.1 6.95-5.62 12.5-6.18 1.54-.07 2.9-.04 4.44.1 1.7 1.07 3.7 1.94 5 3.2 3.68 3.3 6.05 6.56 7.78 10.6.17.6.28 1.13.35 1.75z" fill="#b7ca9d"/><path d="M1253.68 259.6c-6.15 1.23-9.72 4.55-12.65 8.38-4.2 5.48-7.28 11.27-7.1 17.64 0 3.87.97 7.1 3.1 10.62.24.35.38.74.68 1.32-2.26.07-4.22-.66-5.46-2.05-2.33-2.46-3.34-5.05-3.15-8.06.24-8.23 2.43-16.14 9.84-22.78 1.7-1.47 3.27-2.67 5.3-3.94 1.98-1.3 4.32-1.9 6.98-1.78z" fill="#b7ca9d"/><path d="M1283.4 287.7c0 2.04-1.9 3.12-3.76 4.2-9.4 5.46-20.32 8.34-31.94 9.9-5.16.7-10.4 1.32-15.62 1.78-6.3.55-12.24-1.07-18.24-2.2-2.46-.46-4.85-1.03-7.4-1.57 0-.18 0-.36.1-.55 1.14-.08 2.14-.08 3.3 0 4.84.6 9.62 1.5 14.46 1.86 4.7.37 8.78.37 13.47 0 8.78-.65 16.16-1.9 24.48-4.16 4.84-1.4 8.77-2.8 13.23-4.7 3.4-1.38 6.54-3.12 6.93-6.32zM1271.78 296.95c2.32-1 4.6-2.1 7-3 1.1-.26 2.1-.36 3.24-.33l.23.42-7.28 3.58z" fill="#b7ca9d"/><g><use xlink:href="#Z" transform="matrix(1,0,0,1,1190,318.4000000000001) translate(13.530864197530867 14.222222222222221)"/><use xlink:href="#aa" transform="matrix(1,0,0,1,1190,318.4000000000001) translate(50.02469135802469 14.222222222222221)"/></g><path d="M1016.04 336.4c-10.83 0-28.1-2.46-28.3-9.1L980 270.1c-.14-.97.43-1.86 1.37-2.06.94-.14 1.88.47 2.1 1.43.8 3.28 13.65 7.86 32.64 7.86 19 0 31.87-4.58 32.66-7.86.22-.96 1.16-1.57 2.1-1.43.94.2 1.5 1.1 1.37 2.05l-7.87 57.2c0 2.26-2.1 4.18-6 5.75-1.8.68-3.4 1.16-5.27 1.57-5.93 1.3-11 1.78-17.06 1.78zm-31.92-61.66l6.93 52.3v.2c0 2.05 9.75 5.8 24.92 5.8 5.78.08 10.62-.47 16.25-1.63 1.73-.4 3.18-.88 4.84-1.56 3.1-1.23 3.83-2.33 3.83-2.67v-.2l7-52.23c-6.58 3.9-19.8 6-31.93 6-12.13 0-25.28-2.1-31.85-6z" stroke="#fff" stroke-opacity="0" fill="#3f8624"/><path d="M1016.06 280.72c-16.15 0-34.25-3.65-35.98-10.4V269.38v-.23c0-7.52 19.03-12.77 36.12-12.77 17.1 0 35.98 5.25 35.98 12.77v.22l-.07.7v.2c-1.87 6.77-19.97 10.42-36.04 10.42zm-32.67-11.2c1.08 3.3 13.84 7.8 32.66 7.8 18.8 0 31.58-4.5 32.66-7.8v-.45c-.22-3.3-13.63-9.26-32.66-9.26-19.04 0-32.52 5.96-32.74 9.27zM1052.23 304.26c-8.07 0-25.83-8-36.92-13.46l1.5-3.06c15.3 7.53 33.36 14.5 36.46 13.18-.24-.48-1.4-2.02-6.83-4.97l-.24-.17 1.68-2.96.25.17c5.47 2.98 8.07 5.3 8.53 7.5.16.93-.08 1.83-.7 2.57-1.04.95-2.32 1.36-3.73 1.2z" stroke="#fff" stroke-opacity="0" fill="#3f8624"/><path d="M1016.05 293c-2.03 0-3.7-1.66-3.7-3.7s1.67-3.7 3.7-3.7c2.04 0 3.7 1.66 3.7 3.7s-1.66 3.7-3.7 3.7zm0-4c-.17 0-.3.14-.3.3 0 .33.6.33.6 0v-.04c0-.16-.13-.28-.3-.28z" stroke="#fff" stroke-opacity="0" fill="#3f8624"/><g><use xlink:href="#ab" transform="matrix(1,0,0,1,950,345.4000000000001) translate(10.47530864197531 14.222222222222221)"/></g><path d="M1054.44 296.4h124.42" stroke="#5e5e5e" stroke-width="2" fill="none"/><path fill="#5e5e5e"/><path d="M1194.13 296.4l-14.27 4.64v-9.28z" stroke="#5e5e5e" stroke-width="2" fill="#5e5e5e"/><path d="M1239.98 317.75V440" stroke="#5e5e5e" stroke-width="2" fill="none"/><path d="M1240.98 317.77h-2V317l.32-.1 1.68-.4z" fill="#5e5e5e"/><path d="M1239.98 455.26l-4.64-14.26h9.27z" stroke="#5e5e5e" stroke-width="2" fill="#5e5e5e"/><defs><path fill="#333" d="M199 0l-22-63H83L61 0H9l90-248h61L250 0h-51zm-33-102l-36-108c-10 38-24 72-36 108h72" id="ac"/><path fill="#333" d="M275 0h-61l-44-196L126 0H64L0-248h53L97-49l45-199h58l43 199 44-199h52" id="ad"/><path fill="#333" d="M169-182c-1-43-94-46-97-3 18 66 151 10 154 114 3 95-165 93-204 36-6-8-10-19-12-30l50-8c3 46 112 56 116 5-17-69-150-10-154-114-4-87 153-88 188-35 5 8 8 18 10 28" id="ae"/><g id="a"><use transform="matrix(0.06172839506172839,0,0,0.06172839506172839,0,0)" xlink:href="#ac"/><use transform="matrix(0.06172839506172839,0,0,0.06172839506172839,14.753086419753085,0)" xlink:href="#ad"/><use transform="matrix(0.06172839506172839,0,0,0.06172839506172839,35.67901234567901,0)" xlink:href="#ae"/></g><path fill="#333" d="M190-63c-7 42-38 67-86 67-59 0-84-38-90-98-12-110 154-137 174-36l-49 2c-2-19-15-32-35-32-30 0-35 28-38 64-6 74 65 87 74 30" id="af"/><path fill="#333" d="M25 0v-261h50V0H25" id="ag"/><path fill="#333" d="M110-194c64 0 96 36 96 99 0 64-35 99-97 99-61 0-95-36-95-99 0-62 34-99 96-99zm-1 164c35 0 45-28 45-65 0-40-10-65-43-65-34 0-45 26-45 65 0 36 10 65 43 65" id="ah"/><path fill="#333" d="M85 4C-2 5 27-109 22-190h50c7 57-23 150 33 157 60-5 35-97 40-157h50l1 190h-47c-2-12 1-28-3-38-12 25-28 42-61 42" id="ai"/><path fill="#333" d="M88-194c31-1 46 15 58 34l-1-101h50l1 261h-48c-2-10 0-23-3-31C134-8 116 4 84 4 32 4 16-41 15-95c0-56 19-97 73-99zm17 164c33 0 40-30 41-66 1-37-9-64-41-64s-38 30-39 65c0 43 13 65 39 65" id="aj"/><g id="b"><use transform="matrix(0.06172839506172839,0,0,0.06172839506172839,0,0)" xlink:href="#af"/><use transform="matrix(0.06172839506172839,0,0,0.06172839506172839,12.345679012345679,0)" xlink:href="#ag"/><use transform="matrix(0.06172839506172839,0,0,0.06172839506172839,18.51851851851852,0)" xlink:href="#ah"/><use transform="matrix(0.06172839506172839,0,0,0.06172839506172839,32.03703703703704,0)" xlink:href="#ai"/><use transform="matrix(0.06172839506172839,0,0,0.06172839506172839,45.55555555555556,0)" xlink:href="#aj"/></g><path fill="#333" d="M147 0H94L2-248h55l64 206c17-72 42-137 63-206h54" id="ak"/><path fill="#333" d="M24-248c93 1 206-16 204 79-1 75-69 88-152 82V0H24v-248zm52 121c47 0 100 7 100-41 0-47-54-39-100-39v80" id="al"/><path fill="#333" d="M67-125c0 53 21 87 73 88 37 1 54-22 65-47l45 17C233-25 199 4 140 4 58 4 20-42 15-125 8-235 124-281 211-232c18 10 29 29 36 50l-46 12c-8-25-30-41-62-41-52 0-71 34-72 86" id="am"/><g id="c"><use transform="matrix(0.06172839506172839,0,0,0.06172839506172839,0,0)" xlink:href="#ak"/><use transform="matrix(0.06172839506172839,0,0,0.06172839506172839,14.814814814814813,0)" xlink:href="#al"/><use transform="matrix(0.06172839506172839,0,0,0.06172839506172839,29.629629629629626,0)" xlink:href="#am"/></g><path fill="#333" d="M14-72v-43h91v43H14" id="an"/><use transform="matrix(0.06172839506172839,0,0,0.06172839506172839,0,0)" xlink:href="#an" id="d"/><path fill="#333" d="M23 0v-37h61v-169l-59 37v-38l62-41h46v211h57V0H23" id="ao"/><path fill="#333" d="M101-251c68 0 84 54 84 127C185-50 166 4 99 4S15-52 14-124c-1-75 17-127 87-127zm-1 216c37-5 36-46 36-89s4-89-36-89c-39 0-36 45-36 89 0 43-3 85 36 89" id="ap"/><path fill="#333" d="M24 0v-54h51V0H24" id="aq"/><path fill="#333" d="M4 7l51-268h42L46 7H4" id="ar"/><path fill="#333" d="M115-159c48 0 72 30 72 78 0 54-30 85-83 85-64 0-91-50-91-122 0-98 58-163 141-120 15 8 21 24 27 44l-47 6c-5-31-48-31-61-4-7 14-11 33-11 60 9-17 28-27 53-27zM102-35c24 0 36-20 36-45s-11-43-37-43c-23 0-36 14-36 38 0 27 11 50 37 50" id="as"/><g id="e"><use transform="matrix(0.06172839506172839,0,0,0.06172839506172839,0,0)" xlink:href="#ao"/><use transform="matrix(0.06172839506172839,0,0,0.06172839506172839,12.345679012345679,0)" xlink:href="#ap"/><use transform="matrix(0.06172839506172839,0,0,0.06172839506172839,24.691358024691358,0)" xlink:href="#aq"/><use transform="matrix(0.06172839506172839,0,0,0.06172839506172839,30.864197530864196,0)" xlink:href="#ap"/><use transform="matrix(0.06172839506172839,0,0,0.06172839506172839,43.20987654320987,0)" xlink:href="#aq"/><use transform="matrix(0.06172839506172839,0,0,0.06172839506172839,49.382716049382715,0)" xlink:href="#ap"/><use transform="matrix(0.06172839506172839,0,0,0.06172839506172839,61.72839506172839,0)" xlink:href="#aq"/><use transform="matrix(0.06172839506172839,0,0,0.06172839506172839,67.90123456790123,0)" xlink:href="#ap"/><use transform="matrix(0.06172839506172839,0,0,0.06172839506172839,80.24691358024691,0)" xlink:href="#ar"/><use transform="matrix(0.06172839506172839,0,0,0.06172839506172839,86.41975308641975,0)" xlink:href="#ao"/><use transform="matrix(0.06172839506172839,0,0,0.06172839506172839,98.76543209876543,0)" xlink:href="#as"/></g><path fill="#333" d="M128 0H69L1-190h53L99-40l48-150h52" id="at"/><path fill="#333" d="M133-34C117-15 103 5 69 4 32 3 11-16 11-54c-1-60 55-63 116-61 1-26-3-47-28-47-18 1-26 9-28 27l-52-2c7-38 36-58 82-57s74 22 75 68l1 82c-1 14 12 18 25 15v27c-30 8-71 5-69-32zm-48 3c29 0 43-24 42-57-32 0-66-3-65 30 0 17 8 27 23 27" id="au"/><path fill="#333" d="M25-224v-37h50v37H25zM25 0v-190h50V0H25" id="av"/><path fill="#333" d="M135-194c52 0 70 43 70 98 0 56-19 99-73 100-30 1-46-15-58-35L72 0H24l1-261h50v104c11-23 29-37 60-37zM114-30c31 0 40-27 40-66 0-37-7-63-39-63s-41 28-41 65c0 36 8 64 40 64" id="aw"/><path fill="#333" d="M115-3C79 11 28 4 28-45v-112H4v-33h27l15-45h31v45h36v33H77v99c-1 23 16 31 38 25v30" id="ax"/><path fill="#333" d="M123 10C108 53 80 86 19 72V37c35 8 53-11 59-39L3-190h52l48 148c12-52 28-100 44-148h51" id="ay"/><g id="f"><use transform="matrix(0.055555555555555546,0,0,0.055555555555555546,0,0)" xlink:href="#ac"/><use transform="matrix(0.055555555555555546,0,0,0.055555555555555546,13.666666666666664,0)" xlink:href="#at"/><use transform="matrix(0.055555555555555546,0,0,0.055555555555555546,24.77777777777777,0)" xlink:href="#au"/><use transform="matrix(0.055555555555555546,0,0,0.055555555555555546,35.88888888888888,0)" xlink:href="#av"/><use transform="matrix(0.055555555555555546,0,0,0.055555555555555546,41.444444444444436,0)" xlink:href="#ag"/><use transform="matrix(0.055555555555555546,0,0,0.055555555555555546,46.99999999999999,0)" xlink:href="#au"/><use transform="matrix(0.055555555555555546,0,0,0.055555555555555546,58.1111111111111,0)" xlink:href="#aw"/><use transform="matrix(0.055555555555555546,0,0,0.055555555555555546,70.27777777777777,0)" xlink:href="#av"/><use transform="matrix(0.055555555555555546,0,0,0.055555555555555546,75.83333333333333,0)" xlink:href="#ag"/><use transform="matrix(0.055555555555555546,0,0,0.055555555555555546,81.38888888888889,0)" xlink:href="#av"/><use transform="matrix(0.055555555555555546,0,0,0.055555555555555546,86.94444444444444,0)" xlink:href="#ax"/><use transform="matrix(0.055555555555555546,0,0,0.055555555555555546,93.55555555555556,0)" xlink:href="#ay"/></g><path fill="#333" d="M210 0H11v-37l134-170H24v-41h178v36L68-41h142V0" id="az"/><path fill="#333" d="M135-194c87-1 58 113 63 194h-50c-7-57 23-157-34-157-59 0-34 97-39 157H25l-1-190h47c2 12-1 28 3 38 12-26 28-41 61-42" id="aA"/><path fill="#333" d="M185-48c-13 30-37 53-82 52C43 2 14-33 14-96s30-98 90-98c62 0 83 45 84 108H66c0 31 8 55 39 56 18 0 30-7 34-22zm-45-69c5-46-57-63-70-21-2 6-4 13-4 21h74" id="aB"/><g id="g"><use transform="matrix(0.055555555555555546,0,0,0.055555555555555546,0,0)" xlink:href="#az"/><use transform="matrix(0.055555555555555546,0,0,0.055555555555555546,12.166666666666664,0)" xlink:href="#ah"/><use transform="matrix(0.055555555555555546,0,0,0.055555555555555546,24.33333333333333,0)" xlink:href="#aA"/><use transform="matrix(0.055555555555555546,0,0,0.055555555555555546,36.49999999999999,0)" xlink:href="#aB"/></g><use transform="matrix(0.055555555555555546,0,0,0.055555555555555546,0,0)" xlink:href="#ac" id="h"/><path fill="#333" d="M182-130c37 4 62 22 62 59C244 23 116-4 24 0v-248c84 5 203-23 205 63 0 31-19 50-47 55zM76-148c40-3 101 13 101-30 0-44-60-28-101-31v61zm0 110c48-3 116 14 116-37 0-48-69-32-116-35v72" id="aC"/><use transform="matrix(0.055555555555555546,0,0,0.055555555555555546,0,0)" xlink:href="#aC" id="i"/><path fill="#333" d="M30-248c87 1 191-15 191 75 0 78-77 80-158 76V0H30v-248zm33 125c57 0 124 11 124-50 0-59-68-47-124-48v98" id="aD"/><path fill="#333" d="M84 4C-5 8 30-112 23-190h32v120c0 31 7 50 39 49 72-2 45-101 50-169h31l1 190h-30c-1-10 1-25-2-33-11 22-28 36-60 37" id="aE"/><path fill="#333" d="M115-194c53 0 69 39 70 98 0 66-23 100-70 100C84 3 66-7 56-30L54 0H23l1-261h32v101c10-23 28-34 59-34zm-8 174c40 0 45-34 45-75 0-40-5-75-45-74-42 0-51 32-51 76 0 43 10 73 51 73" id="aF"/><path fill="#333" d="M24 0v-261h32V0H24" id="aG"/><path fill="#333" d="M24-231v-30h32v30H24zM24 0v-190h32V0H24" id="aH"/><path fill="#333" d="M96-169c-40 0-48 33-48 73s9 75 48 75c24 0 41-14 43-38l32 2c-6 37-31 61-74 61-59 0-76-41-82-99-10-93 101-131 147-64 4 7 5 14 7 22l-32 3c-4-21-16-35-41-35" id="aI"/><g id="k"><use transform="matrix(0.04320987654320987,0,0,0.04320987654320987,0,0)" xlink:href="#aD"/><use transform="matrix(0.04320987654320987,0,0,0.04320987654320987,10.370370370370368,0)" xlink:href="#aE"/><use transform="matrix(0.04320987654320987,0,0,0.04320987654320987,19.01234567901234,0)" xlink:href="#aF"/><use transform="matrix(0.04320987654320987,0,0,0.04320987654320987,27.654320987654316,0)" xlink:href="#aG"/><use transform="matrix(0.04320987654320987,0,0,0.04320987654320987,31.067901234567895,0)" xlink:href="#aH"/><use transform="matrix(0.04320987654320987,0,0,0.04320987654320987,34.481481481481474,0)" xlink:href="#aI"/></g><path fill="#333" d="M185-189c-5-48-123-54-124 2 14 75 158 14 163 119 3 78-121 87-175 55-17-10-28-26-33-46l33-7c5 56 141 63 141-1 0-78-155-14-162-118-5-82 145-84 179-34 5 7 8 16 11 25" id="aJ"/><path fill="#333" d="M117-194c89-4 53 116 60 194h-32v-121c0-31-8-49-39-48C34-167 62-67 57 0H25l-1-190h30c1 10-1 24 2 32 11-22 29-35 61-36" id="aK"/><path fill="#333" d="M100-194c63 0 86 42 84 106H49c0 40 14 67 53 68 26 1 43-12 49-29l28 8c-11 28-37 45-77 45C44 4 14-33 15-96c1-61 26-98 85-98zm52 81c6-60-76-77-97-28-3 7-6 17-6 28h103" id="aL"/><path fill="#333" d="M59-47c-2 24 18 29 38 22v24C64 9 27 4 27-40v-127H5v-23h24l9-43h21v43h35v23H59v120" id="aM"/><g id="l"><use transform="matrix(0.04320987654320987,0,0,0.04320987654320987,0,0)" xlink:href="#aJ"/><use transform="matrix(0.04320987654320987,0,0,0.04320987654320987,10.370370370370368,0)" xlink:href="#aE"/><use transform="matrix(0.04320987654320987,0,0,0.04320987654320987,19.01234567901234,0)" xlink:href="#aF"/><use transform="matrix(0.04320987654320987,0,0,0.04320987654320987,27.654320987654316,0)" xlink:href="#aK"/><use transform="matrix(0.04320987654320987,0,0,0.04320987654320987,36.29629629629629,0)" xlink:href="#aL"/><use transform="matrix(0.04320987654320987,0,0,0.04320987654320987,44.938271604938265,0)" xlink:href="#aM"/></g><path fill="#333" d="M101-251c82-7 93 87 43 132L82-64C71-53 59-42 53-27h129V0H18c2-99 128-94 128-182 0-28-16-43-45-43s-46 15-49 41l-32-3c6-41 34-60 81-64" id="aN"/><use transform="matrix(0.04320987654320987,0,0,0.04320987654320987,0,0)" xlink:href="#aN" id="m"/><path fill="#333" d="M27 0v-27h64v-190l-56 39v-29l58-41h29v221h61V0H27" id="aO"/><path fill="#333" d="M101-251c68 0 85 55 85 127S166 4 100 4C33 4 14-52 14-124c0-73 17-127 87-127zm-1 229c47 0 54-49 54-102s-4-102-53-102c-51 0-55 48-55 102 0 53 5 102 54 102" id="aP"/><path fill="#333" d="M33 0v-38h34V0H33" id="aQ"/><path fill="#333" d="M0 4l72-265h28L28 4H0" id="aR"/><path fill="#333" d="M155-56V0h-30v-56H8v-25l114-167h33v167h35v25h-35zm-30-156c-27 46-58 90-88 131h88v-131" id="aS"/><g id="o"><use transform="matrix(0.04320987654320987,0,0,0.04320987654320987,0,0)" xlink:href="#aO"/><use transform="matrix(0.04320987654320987,0,0,0.04320987654320987,8.641975308641973,0)" xlink:href="#aP"/><use transform="matrix(0.04320987654320987,0,0,0.04320987654320987,17.283950617283946,0)" xlink:href="#aQ"/><use transform="matrix(0.04320987654320987,0,0,0.04320987654320987,21.604938271604933,0)" xlink:href="#aP"/><use transform="matrix(0.04320987654320987,0,0,0.04320987654320987,30.2469135802469,0)" xlink:href="#aQ"/><use transform="matrix(0.04320987654320987,0,0,0.04320987654320987,34.56790123456789,0)" xlink:href="#aO"/><use transform="matrix(0.04320987654320987,0,0,0.04320987654320987,43.209876543209866,0)" xlink:href="#aQ"/><use transform="matrix(0.04320987654320987,0,0,0.04320987654320987,47.53086419753085,0)" xlink:href="#aP"/><use transform="matrix(0.04320987654320987,0,0,0.04320987654320987,56.17283950617283,0)" xlink:href="#aR"/><use transform="matrix(0.04320987654320987,0,0,0.04320987654320987,60.493827160493815,0)" xlink:href="#aN"/><use transform="matrix(0.04320987654320987,0,0,0.04320987654320987,69.13580246913578,0)" xlink:href="#aS"/></g><use transform="matrix(0.04320987654320987,0,0,0.04320987654320987,0,0)" xlink:href="#aO" id="q"/><g id="r"><use transform="matrix(0.04320987654320987,0,0,0.04320987654320987,0,0)" xlink:href="#aO"/><use transform="matrix(0.04320987654320987,0,0,0.04320987654320987,8.641975308641973,0)" xlink:href="#aP"/><use transform="matrix(0.04320987654320987,0,0,0.04320987654320987,17.283950617283946,0)" xlink:href="#aQ"/><use transform="matrix(0.04320987654320987,0,0,0.04320987654320987,21.604938271604933,0)" xlink:href="#aP"/><use transform="matrix(0.04320987654320987,0,0,0.04320987654320987,30.2469135802469,0)" xlink:href="#aQ"/><use transform="matrix(0.04320987654320987,0,0,0.04320987654320987,34.56790123456789,0)" xlink:href="#aP"/><use transform="matrix(0.04320987654320987,0,0,0.04320987654320987,43.209876543209866,0)" xlink:href="#aQ"/><use transform="matrix(0.04320987654320987,0,0,0.04320987654320987,47.53086419753085,0)" xlink:href="#aP"/><use transform="matrix(0.04320987654320987,0,0,0.04320987654320987,56.17283950617283,0)" xlink:href="#aR"/><use transform="matrix(0.04320987654320987,0,0,0.04320987654320987,60.493827160493815,0)" xlink:href="#aN"/><use transform="matrix(0.04320987654320987,0,0,0.04320987654320987,69.13580246913578,0)" xlink:href="#aS"/></g><path fill="#333" d="M114-163C36-179 61-72 57 0H25l-1-190h30c1 12-1 29 2 39 6-27 23-49 58-41v29" id="aT"/><path fill="#333" d="M108 0H70L1-190h34L89-25l56-165h34" id="aU"/><path fill="#333" d="M141-36C126-15 110 5 73 4 37 3 15-17 15-53c-1-64 63-63 125-63 3-35-9-54-41-54-24 1-41 7-42 31l-33-3c5-37 33-52 76-52 45 0 72 20 72 64v82c-1 20 7 32 28 27v20c-31 9-61-2-59-35zM48-53c0 20 12 33 32 33 41-3 63-29 60-74-43 2-92-5-92 41" id="aV"/><g id="s"><use transform="matrix(0.04320987654320987,0,0,0.04320987654320987,0,0)" xlink:href="#aD"/><use transform="matrix(0.04320987654320987,0,0,0.04320987654320987,10.370370370370368,0)" xlink:href="#aT"/><use transform="matrix(0.04320987654320987,0,0,0.04320987654320987,15.512345679012343,0)" xlink:href="#aH"/><use transform="matrix(0.04320987654320987,0,0,0.04320987654320987,18.925925925925924,0)" xlink:href="#aU"/><use transform="matrix(0.04320987654320987,0,0,0.04320987654320987,26.7037037037037,0)" xlink:href="#aV"/><use transform="matrix(0.04320987654320987,0,0,0.04320987654320987,35.34567901234567,0)" xlink:href="#aM"/><use transform="matrix(0.04320987654320987,0,0,0.04320987654320987,39.66666666666666,0)" xlink:href="#aL"/></g><path fill="#333" d="M126-127c33 6 58 20 58 59 0 88-139 92-164 29-3-8-5-16-6-25l32-3c6 27 21 44 54 44 32 0 52-15 52-46 0-38-36-46-79-43v-28c39 1 72-4 72-42 0-27-17-43-46-43-28 0-47 15-49 41l-32-3c6-42 35-63 81-64 48-1 79 21 79 65 0 36-21 52-52 59" id="aW"/><g id="t"><use transform="matrix(0.04320987654320987,0,0,0.04320987654320987,0,0)" xlink:href="#aO"/><use transform="matrix(0.04320987654320987,0,0,0.04320987654320987,8.641975308641973,0)" xlink:href="#aP"/><use transform="matrix(0.04320987654320987,0,0,0.04320987654320987,17.283950617283946,0)" xlink:href="#aQ"/><use transform="matrix(0.04320987654320987,0,0,0.04320987654320987,21.604938271604933,0)" xlink:href="#aP"/><use transform="matrix(0.04320987654320987,0,0,0.04320987654320987,30.2469135802469,0)" xlink:href="#aQ"/><use transform="matrix(0.04320987654320987,0,0,0.04320987654320987,34.56790123456789,0)" xlink:href="#aW"/><use transform="matrix(0.04320987654320987,0,0,0.04320987654320987,43.209876543209866,0)" xlink:href="#aQ"/><use transform="matrix(0.04320987654320987,0,0,0.04320987654320987,47.53086419753085,0)" xlink:href="#aP"/><use transform="matrix(0.04320987654320987,0,0,0.04320987654320987,56.17283950617283,0)" xlink:href="#aR"/><use transform="matrix(0.04320987654320987,0,0,0.04320987654320987,60.493827160493815,0)" xlink:href="#aN"/><use transform="matrix(0.04320987654320987,0,0,0.04320987654320987,69.13580246913578,0)" xlink:href="#aS"/></g><g id="w"><use transform="matrix(0.04320987654320987,0,0,0.04320987654320987,0,0)" xlink:href="#aD"/><use transform="matrix(0.04320987654320987,0,0,0.04320987654320987,10.370370370370368,0)" xlink:href="#aT"/><use transform="matrix(0.04320987654320987,0,0,0.04320987654320987,15.512345679012343,0)" xlink:href="#aH"/><use transform="matrix(0.04320987654320987,0,0,0.04320987654320987,18.925925925925924,0)" xlink:href="#aU"/><use transform="matrix(0.04320987654320987,0,0,0.04320987654320987,26.7037037037037,0)" xlink:href="#aV"/><use transform="matrix(0.04320987654320987,0,0,0.04320987654320987,35.34567901234567,0)" xlink:href="#aM"/><use transform="matrix(0.04320987654320987,0,0,0.04320987654320987,39.66666666666666,0)" xlink:href="#aL"/></g><g id="x"><use transform="matrix(0.04320987654320987,0,0,0.04320987654320987,0,0)" xlink:href="#aO"/><use transform="matrix(0.04320987654320987,0,0,0.04320987654320987,8.641975308641973,0)" xlink:href="#aP"/><use transform="matrix(0.04320987654320987,0,0,0.04320987654320987,17.283950617283946,0)" xlink:href="#aQ"/><use transform="matrix(0.04320987654320987,0,0,0.04320987654320987,21.604938271604933,0)" xlink:href="#aP"/><use transform="matrix(0.04320987654320987,0,0,0.04320987654320987,30.2469135802469,0)" xlink:href="#aQ"/><use transform="matrix(0.04320987654320987,0,0,0.04320987654320987,34.56790123456789,0)" xlink:href="#aN"/><use transform="matrix(0.04320987654320987,0,0,0.04320987654320987,43.209876543209866,0)" xlink:href="#aQ"/><use transform="matrix(0.04320987654320987,0,0,0.04320987654320987,47.53086419753085,0)" xlink:href="#aP"/><use transform="matrix(0.04320987654320987,0,0,0.04320987654320987,56.17283950617283,0)" xlink:href="#aR"/><use transform="matrix(0.04320987654320987,0,0,0.04320987654320987,60.493827160493815,0)" xlink:href="#aN"/><use transform="matrix(0.04320987654320987,0,0,0.04320987654320987,69.13580246913578,0)" xlink:href="#aS"/></g><path fill="#333" d="M232-93c-1 65-40 97-104 97C67 4 28-28 28-90v-158h33c8 89-33 224 67 224 102 0 64-133 71-224h33v155" id="aX"/><path fill="#333" d="M85-194c31 0 48 13 60 33l-1-100h32l1 261h-30c-2-10 0-23-3-31C134-8 116 4 85 4 32 4 16-35 15-94c0-66 23-100 70-100zm9 24c-40 0-46 34-46 75 0 40 6 74 45 74 42 0 51-32 51-76 0-42-9-74-50-73" id="aY"/><path fill="#333" d="M177-190C167-65 218 103 67 71c-23-6-38-20-44-43l32-5c15 47 100 32 89-28v-30C133-14 115 1 83 1 29 1 15-40 15-95c0-56 16-97 71-98 29-1 48 16 59 35 1-10 0-23 2-32h30zM94-22c36 0 50-32 50-73 0-42-14-75-50-75-39 0-46 34-46 75s6 73 46 73" id="aZ"/><path fill="#333" d="M210-169c-67 3-38 105-44 169h-31v-121c0-29-5-50-35-48C34-165 62-65 56 0H25l-1-190h30c1 10-1 24 2 32 10-44 99-50 107 0 11-21 27-35 58-36 85-2 47 119 55 194h-31v-121c0-29-5-49-35-48" id="ba"/><g id="y"><use transform="matrix(0.04320987654320986,0,0,0.04320987654320986,0,0)" xlink:href="#aX"/><use transform="matrix(0.04320987654320986,0,0,0.04320987654320986,11.191358024691354,0)" xlink:href="#aY"/><use transform="matrix(0.04320987654320986,0,0,0.04320987654320986,19.83333333333333,0)" xlink:href="#aV"/><use transform="matrix(0.04320987654320986,0,0,0.04320987654320986,28.475308641975303,0)" xlink:href="#aZ"/><use transform="matrix(0.04320987654320986,0,0,0.04320987654320986,37.11728395061728,0)" xlink:href="#aT"/><use transform="matrix(0.04320987654320986,0,0,0.04320987654320986,42.25925925925925,0)" xlink:href="#aV"/><use transform="matrix(0.04320987654320986,0,0,0.04320987654320986,50.90123456790123,0)" xlink:href="#ba"/></g><path fill="#333" d="M266 0h-40l-56-210L115 0H75L2-248h35L96-30l15-64 43-154h32l59 218 59-218h35" id="bb"/><path fill="#333" d="M205 0l-28-72H64L36 0H1l101-248h38L239 0h-34zm-38-99l-47-123c-12 45-31 82-46 123h93" id="bc"/><path fill="#333" d="M115-194c55 1 70 41 70 98S169 2 115 4C84 4 66-9 55-30l1 105H24l-1-265h31l2 30c10-21 28-34 59-34zm-8 174c40 0 45-34 45-75s-6-73-45-74c-42 0-51 32-51 76 0 43 10 73 51 73" id="bd"/><g id="z"><use transform="matrix(0.04320987654320986,0,0,0.04320987654320986,0,0)" xlink:href="#bb"/><use transform="matrix(0.04320987654320986,0,0,0.04320987654320986,14.345679012345675,0)" xlink:href="#aL"/><use transform="matrix(0.04320987654320986,0,0,0.04320987654320986,22.987654320987644,0)" xlink:href="#aF"/><use transform="matrix(0.04320987654320986,0,0,0.04320987654320986,31.62962962962962,0)" xlink:href="#bc"/><use transform="matrix(0.04320987654320986,0,0,0.04320987654320986,41.999999999999986,0)" xlink:href="#bd"/><use transform="matrix(0.04320987654320986,0,0,0.04320987654320986,50.64197530864195,0)" xlink:href="#bd"/></g><path fill="#333" d="M100-194c62-1 85 37 85 99 1 63-27 99-86 99S16-35 15-95c0-66 28-99 85-99zM99-20c44 1 53-31 53-75 0-43-8-75-51-75s-53 32-53 75 10 74 51 75" id="be"/><g id="A"><use transform="matrix(0.049382716049382706,0,0,0.049382716049382706,0,0)" xlink:href="#bc"/><use transform="matrix(0.049382716049382706,0,0,0.049382716049382706,11.85185185185185,0)" xlink:href="#aE"/><use transform="matrix(0.049382716049382706,0,0,0.049382716049382706,21.728395061728392,0)" xlink:href="#aM"/><use transform="matrix(0.049382716049382706,0,0,0.049382716049382706,26.666666666666668,0)" xlink:href="#be"/></g><g id="B"><use transform="matrix(0.049382716049382706,0,0,0.049382716049382706,0,0)" xlink:href="#aJ"/><use transform="matrix(0.049382716049382706,0,0,0.049382716049382706,11.85185185185185,0)" xlink:href="#aI"/><use transform="matrix(0.049382716049382706,0,0,0.049382716049382706,20.740740740740737,0)" xlink:href="#aV"/><use transform="matrix(0.049382716049382706,0,0,0.049382716049382706,30.617283950617278,0)" xlink:href="#aG"/><use transform="matrix(0.049382716049382706,0,0,0.049382716049382706,34.51851851851851,0)" xlink:href="#aH"/><use transform="matrix(0.049382716049382706,0,0,0.049382716049382706,38.419753086419746,0)" xlink:href="#aK"/><use transform="matrix(0.049382716049382706,0,0,0.049382716049382706,48.29629629629629,0)" xlink:href="#aZ"/></g><path fill="#333" d="M160-131c35 5 61 23 61 61C221 17 115-2 30 0v-248c76 3 177-17 177 60 0 33-19 50-47 57zm-97-11c50-1 110 9 110-42 0-47-63-36-110-37v79zm0 115c55-2 124 14 124-45 0-56-70-42-124-44v89" id="bf"/><path fill="#333" d="M135-143c-3-34-86-38-87 0 15 53 115 12 119 90S17 21 10-45l28-5c4 36 97 45 98 0-10-56-113-15-118-90-4-57 82-63 122-42 12 7 21 19 24 35" id="bg"/><g id="C"><use transform="matrix(0.04320987654320986,0,0,0.04320987654320986,0,0)" xlink:href="#bf"/><use transform="matrix(0.04320987654320986,0,0,0.04320987654320986,10.370370370370367,0)" xlink:href="#aV"/><use transform="matrix(0.04320987654320986,0,0,0.04320987654320986,19.01234567901234,0)" xlink:href="#bg"/><use transform="matrix(0.04320987654320986,0,0,0.04320987654320986,26.79012345679012,0)" xlink:href="#aM"/><use transform="matrix(0.04320987654320986,0,0,0.04320987654320986,31.111111111111104,0)" xlink:href="#aH"/><use transform="matrix(0.04320987654320986,0,0,0.04320987654320986,34.52469135802468,0)" xlink:href="#be"/><use transform="matrix(0.04320987654320986,0,0,0.04320987654320986,43.16666666666666,0)" xlink:href="#aK"/></g><path fill="#333" d="M87 75C49 33 22-17 22-94c0-76 28-126 65-167h31c-38 41-64 92-64 168S80 34 118 75H87" id="bh"/><path fill="#333" d="M153-248C145-148 188 4 80 4 36 3 13-21 6-62l32-5c4 25 16 42 43 43 27 0 39-20 39-49v-147H72v-28h81" id="bi"/><g id="D"><use transform="matrix(0.04320987654320986,0,0,0.04320987654320986,0,0)" xlink:href="#bh"/><use transform="matrix(0.04320987654320986,0,0,0.04320987654320986,5.141975308641974,0)" xlink:href="#bi"/><use transform="matrix(0.04320987654320986,0,0,0.04320987654320986,12.919753086419751,0)" xlink:href="#aE"/><use transform="matrix(0.04320987654320986,0,0,0.04320987654320986,21.56172839506172,0)" xlink:href="#ba"/><use transform="matrix(0.04320987654320986,0,0,0.04320987654320986,34.48148148148147,0)" xlink:href="#bd"/></g><path fill="#333" d="M141 0L90-78 38 0H4l68-98-65-92h35l48 74 47-74h35l-64 92 68 98h-35" id="bj"/><path fill="#333" d="M33-261c38 41 65 92 65 168S71 34 33 75H2C39 34 66-17 66-93S39-220 2-261h31" id="bk"/><g id="E"><use transform="matrix(0.04320987654320986,0,0,0.04320987654320986,0,0)" xlink:href="#bf"/><use transform="matrix(0.04320987654320986,0,0,0.04320987654320986,10.370370370370367,0)" xlink:href="#be"/><use transform="matrix(0.04320987654320986,0,0,0.04320987654320986,19.01234567901234,0)" xlink:href="#bj"/><use transform="matrix(0.04320987654320986,0,0,0.04320987654320986,26.79012345679012,0)" xlink:href="#bk"/></g><g id="F"><use transform="matrix(0.049382716049382706,0,0,0.049382716049382706,0,0)" xlink:href="#bb"/><use transform="matrix(0.049382716049382706,0,0,0.049382716049382706,16.395061728395056,0)" xlink:href="#aL"/><use transform="matrix(0.049382716049382706,0,0,0.049382716049382706,26.2716049382716,0)" xlink:href="#aF"/><use transform="matrix(0.049382716049382706,0,0,0.049382716049382706,36.14814814814814,0)" xlink:href="#bc"/><use transform="matrix(0.049382716049382706,0,0,0.049382716049382706,47.999999999999986,0)" xlink:href="#bd"/><use transform="matrix(0.049382716049382706,0,0,0.049382716049382706,57.87654320987653,0)" xlink:href="#bd"/></g><path fill="#333" d="M143 4C61 4 22-44 18-125c-5-107 100-154 193-111 17 8 29 25 37 43l-32 9c-13-25-37-40-76-40-61 0-88 39-88 99 0 61 29 100 91 101 35 0 62-11 79-27v-45h-74v-28h105v86C228-13 192 4 143 4" id="bl"/><g id="G"><use transform="matrix(0.049382716049382706,0,0,0.049382716049382706,0,0)" xlink:href="#aJ"/><use transform="matrix(0.049382716049382706,0,0,0.049382716049382706,11.85185185185185,0)" xlink:href="#aL"/><use transform="matrix(0.049382716049382706,0,0,0.049382716049382706,21.728395061728392,0)" xlink:href="#aI"/><use transform="matrix(0.049382716049382706,0,0,0.049382716049382706,30.617283950617278,0)" xlink:href="#bl"/><use transform="matrix(0.049382716049382706,0,0,0.049382716049382706,44.444444444444436,0)" xlink:href="#aT"/><use transform="matrix(0.049382716049382706,0,0,0.049382716049382706,50.32098765432098,0)" xlink:href="#be"/><use transform="matrix(0.049382716049382706,0,0,0.049382716049382706,60.19753086419752,0)" xlink:href="#aE"/><use transform="matrix(0.049382716049382706,0,0,0.049382716049382706,70.07407407407406,0)" xlink:href="#bd"/></g><g id="H"><use transform="matrix(0.0493827160493827,0,0,0.0493827160493827,0,0)" xlink:href="#bb"/><use transform="matrix(0.0493827160493827,0,0,0.0493827160493827,16.395061728395053,0)" xlink:href="#aL"/><use transform="matrix(0.0493827160493827,0,0,0.0493827160493827,26.271604938271597,0)" xlink:href="#aF"/><use transform="matrix(0.0493827160493827,0,0,0.0493827160493827,36.14814814814813,0)" xlink:href="#bc"/><use transform="matrix(0.0493827160493827,0,0,0.0493827160493827,47.99999999999998,0)" xlink:href="#bd"/><use transform="matrix(0.0493827160493827,0,0,0.0493827160493827,57.876543209876516,0)" xlink:href="#bd"/></g><g id="I"><use transform="matrix(0.0493827160493827,0,0,0.0493827160493827,0,0)" xlink:href="#aJ"/><use transform="matrix(0.0493827160493827,0,0,0.0493827160493827,11.851851851851848,0)" xlink:href="#aL"/><use transform="matrix(0.0493827160493827,0,0,0.0493827160493827,21.728395061728385,0)" xlink:href="#aI"/><use transform="matrix(0.0493827160493827,0,0,0.0493827160493827,30.617283950617267,0)" xlink:href="#bl"/><use transform="matrix(0.0493827160493827,0,0,0.0493827160493827,44.44444444444443,0)" xlink:href="#aT"/><use transform="matrix(0.0493827160493827,0,0,0.0493827160493827,50.32098765432097,0)" xlink:href="#be"/><use transform="matrix(0.0493827160493827,0,0,0.0493827160493827,60.19753086419751,0)" xlink:href="#aE"/><use transform="matrix(0.0493827160493827,0,0,0.0493827160493827,70.07407407407405,0)" xlink:href="#bd"/></g><g id="J"><use transform="matrix(0.04320987654320987,0,0,0.04320987654320987,0,0)" xlink:href="#bf"/><use transform="matrix(0.04320987654320987,0,0,0.04320987654320987,10.370370370370368,0)" xlink:href="#aV"/><use transform="matrix(0.04320987654320987,0,0,0.04320987654320987,19.01234567901234,0)" xlink:href="#bg"/><use transform="matrix(0.04320987654320987,0,0,0.04320987654320987,26.790123456790116,0)" xlink:href="#aM"/><use transform="matrix(0.04320987654320987,0,0,0.04320987654320987,31.111111111111104,0)" xlink:href="#aH"/><use transform="matrix(0.04320987654320987,0,0,0.04320987654320987,34.52469135802468,0)" xlink:href="#be"/><use transform="matrix(0.04320987654320987,0,0,0.04320987654320987,43.16666666666666,0)" xlink:href="#aK"/></g><g id="K"><use transform="matrix(0.04320987654320987,0,0,0.04320987654320987,0,0)" xlink:href="#aJ"/><use transform="matrix(0.04320987654320987,0,0,0.04320987654320987,10.370370370370368,0)" xlink:href="#aL"/><use transform="matrix(0.04320987654320987,0,0,0.04320987654320987,19.01234567901234,0)" xlink:href="#aI"/><use transform="matrix(0.04320987654320987,0,0,0.04320987654320987,26.790123456790116,0)" xlink:href="#bl"/><use transform="matrix(0.04320987654320987,0,0,0.04320987654320987,38.88888888888888,0)" xlink:href="#aT"/><use transform="matrix(0.04320987654320987,0,0,0.04320987654320987,44.03086419753085,0)" xlink:href="#be"/><use transform="matrix(0.04320987654320987,0,0,0.04320987654320987,52.67283950617283,0)" xlink:href="#aE"/><use transform="matrix(0.04320987654320987,0,0,0.04320987654320987,61.3148148148148,0)" xlink:href="#bd"/></g><path fill="#333" d="M137 0h-34L2-248h35l83 218 83-218h36" id="bm"/><path fill="#333" d="M212-179c-10-28-35-45-73-45-59 0-87 40-87 99 0 60 29 101 89 101 43 0 62-24 78-52l27 14C228-24 195 4 139 4 59 4 22-46 18-125c-6-104 99-153 187-111 19 9 31 26 39 46" id="bn"/><g id="L"><use transform="matrix(0.04320987654320986,0,0,0.04320987654320986,0,0)" xlink:href="#bm"/><use transform="matrix(0.04320987654320986,0,0,0.04320987654320986,10.370370370370367,0)" xlink:href="#aD"/><use transform="matrix(0.04320987654320986,0,0,0.04320987654320986,20.740740740740733,0)" xlink:href="#bn"/></g><path fill="#333" d="M190 0L58-211 59 0H30v-248h39L202-35l-2-213h31V0h-41" id="bo"/><path fill="#333" d="M127-220V0H93v-220H8v-28h204v28h-85" id="bp"/><g id="M"><use transform="matrix(0.04320987654320986,0,0,0.04320987654320986,0,0)" xlink:href="#bo"/><use transform="matrix(0.04320987654320986,0,0,0.04320987654320986,11.191358024691354,0)" xlink:href="#bc"/><use transform="matrix(0.04320987654320986,0,0,0.04320987654320986,20.395061728395056,0)" xlink:href="#bp"/></g><path fill="#333" d="M206 0h-36l-40-164L89 0H53L-1-190h32L70-26l43-164h34l41 164 42-164h31" id="bq"/><path fill="#333" d="M179-190L93 31C79 59 56 82 12 73V49c39 6 53-20 64-50L1-190h34L92-34l54-156h33" id="br"/><g id="N"><use transform="matrix(0.04320987654320986,0,0,0.04320987654320986,0,0)" xlink:href="#aZ"/><use transform="matrix(0.04320987654320986,0,0,0.04320987654320986,8.641975308641973,0)" xlink:href="#aV"/><use transform="matrix(0.04320987654320986,0,0,0.04320987654320986,17.283950617283946,0)" xlink:href="#aM"/><use transform="matrix(0.04320987654320986,0,0,0.04320987654320986,21.604938271604933,0)" xlink:href="#aL"/><use transform="matrix(0.04320987654320986,0,0,0.04320987654320986,30.2469135802469,0)" xlink:href="#bq"/><use transform="matrix(0.04320987654320986,0,0,0.04320987654320986,41.43827160493826,0)" xlink:href="#aV"/><use transform="matrix(0.04320987654320986,0,0,0.04320987654320986,50.080246913580226,0)" xlink:href="#br"/></g><g id="O"><use transform="matrix(0.04320987654320987,0,0,0.04320987654320987,0,0)" xlink:href="#bm"/><use transform="matrix(0.04320987654320987,0,0,0.04320987654320987,10.370370370370368,0)" xlink:href="#aD"/><use transform="matrix(0.04320987654320987,0,0,0.04320987654320987,20.740740740740737,0)" xlink:href="#bn"/></g><g id="P"><use transform="matrix(0.04320987654320987,0,0,0.04320987654320987,0,0)" xlink:href="#bo"/><use transform="matrix(0.04320987654320987,0,0,0.04320987654320987,11.191358024691356,0)" xlink:href="#bc"/><use transform="matrix(0.04320987654320987,0,0,0.04320987654320987,20.395061728395056,0)" xlink:href="#bp"/></g><g id="Q"><use transform="matrix(0.04320987654320987,0,0,0.04320987654320987,0,0)" xlink:href="#aZ"/><use transform="matrix(0.04320987654320987,0,0,0.04320987654320987,8.641975308641973,0)" xlink:href="#aV"/><use transform="matrix(0.04320987654320987,0,0,0.04320987654320987,17.283950617283946,0)" xlink:href="#aM"/><use transform="matrix(0.04320987654320987,0,0,0.04320987654320987,21.604938271604933,0)" xlink:href="#aL"/><use transform="matrix(0.04320987654320987,0,0,0.04320987654320987,30.2469135802469,0)" xlink:href="#bq"/><use transform="matrix(0.04320987654320987,0,0,0.04320987654320987,41.43827160493826,0)" xlink:href="#aV"/><use transform="matrix(0.04320987654320987,0,0,0.04320987654320987,50.08024691358023,0)" xlink:href="#br"/></g><g id="R"><use transform="matrix(0.049382716049382706,0,0,0.049382716049382706,0,0)" xlink:href="#aT"/><use transform="matrix(0.049382716049382706,0,0,0.049382716049382706,5.876543209876542,0)" xlink:href="#be"/><use transform="matrix(0.049382716049382706,0,0,0.049382716049382706,15.75308641975308,0)" xlink:href="#aE"/><use transform="matrix(0.049382716049382706,0,0,0.049382716049382706,25.629629629629626,0)" xlink:href="#aM"/><use transform="matrix(0.049382716049382706,0,0,0.049382716049382706,30.56790123456789,0)" xlink:href="#aL"/></g><g id="S"><use transform="matrix(0.049382716049382706,0,0,0.049382716049382706,0,0)" xlink:href="#aM"/><use transform="matrix(0.049382716049382706,0,0,0.049382716049382706,4.93827160493827,0)" xlink:href="#aV"/><use transform="matrix(0.049382716049382706,0,0,0.049382716049382706,14.814814814814811,0)" xlink:href="#aF"/><use transform="matrix(0.049382716049382706,0,0,0.049382716049382706,24.691358024691354,0)" xlink:href="#aG"/><use transform="matrix(0.049382716049382706,0,0,0.049382716049382706,28.592592592592588,0)" xlink:href="#aL"/></g><path fill="#333" d="M33 0v-248h34V0H33" id="bs"/><g id="T"><use transform="matrix(0.055555555555555546,0,0,0.055555555555555546,0,0)" xlink:href="#bs"/><use transform="matrix(0.055555555555555546,0,0,0.055555555555555546,5.5555555555555545,0)" xlink:href="#aK"/><use transform="matrix(0.055555555555555546,0,0,0.055555555555555546,16.666666666666664,0)" xlink:href="#aM"/><use transform="matrix(0.055555555555555546,0,0,0.055555555555555546,22.222222222222218,0)" xlink:href="#aL"/><use transform="matrix(0.055555555555555546,0,0,0.055555555555555546,33.33333333333333,0)" xlink:href="#aT"/><use transform="matrix(0.055555555555555546,0,0,0.055555555555555546,39.944444444444436,0)" xlink:href="#aK"/><use transform="matrix(0.055555555555555546,0,0,0.055555555555555546,51.05555555555554,0)" xlink:href="#aL"/><use transform="matrix(0.055555555555555546,0,0,0.055555555555555546,62.16666666666666,0)" xlink:href="#aM"/></g><g id="U"><use transform="matrix(0.055555555555555546,0,0,0.055555555555555546,0,0)" xlink:href="#aZ"/><use transform="matrix(0.055555555555555546,0,0,0.055555555555555546,11.111111111111109,0)" xlink:href="#aV"/><use transform="matrix(0.055555555555555546,0,0,0.055555555555555546,22.222222222222218,0)" xlink:href="#aM"/><use transform="matrix(0.055555555555555546,0,0,0.055555555555555546,27.77777777777777,0)" xlink:href="#aL"/><use transform="matrix(0.055555555555555546,0,0,0.055555555555555546,38.88888888888888,0)" xlink:href="#bq"/><use transform="matrix(0.055555555555555546,0,0,0.055555555555555546,53.277777777777764,0)" xlink:href="#aV"/><use transform="matrix(0.055555555555555546,0,0,0.055555555555555546,64.38888888888887,0)" xlink:href="#br"/></g><g id="V"><use transform="matrix(0.06172839506172839,0,0,0.06172839506172839,0,0)" xlink:href="#bc"/><use transform="matrix(0.06172839506172839,0,0,0.06172839506172839,14.814814814814813,0)" xlink:href="#bd"/><use transform="matrix(0.06172839506172839,0,0,0.06172839506172839,27.160493827160494,0)" xlink:href="#bd"/><use transform="matrix(0.06172839506172839,0,0,0.06172839506172839,39.50617283950617,0)" xlink:href="#aG"/><use transform="matrix(0.06172839506172839,0,0,0.06172839506172839,44.382716049382715,0)" xlink:href="#aH"/><use transform="matrix(0.06172839506172839,0,0,0.06172839506172839,49.25925925925926,0)" xlink:href="#aI"/><use transform="matrix(0.06172839506172839,0,0,0.06172839506172839,60.37037037037037,0)" xlink:href="#aV"/><use transform="matrix(0.06172839506172839,0,0,0.06172839506172839,72.71604938271605,0)" xlink:href="#aM"/><use transform="matrix(0.06172839506172839,0,0,0.06172839506172839,78.88888888888889,0)" xlink:href="#aH"/><use transform="matrix(0.06172839506172839,0,0,0.06172839506172839,83.76543209876543,0)" xlink:href="#be"/><use transform="matrix(0.06172839506172839,0,0,0.06172839506172839,96.11111111111111,0)" xlink:href="#aK"/></g><path fill="#333" d="M30 0v-248h33v221h125V0H30" id="bt"/><g id="W"><use transform="matrix(0.06172839506172839,0,0,0.06172839506172839,0,0)" xlink:href="#bt"/><use transform="matrix(0.06172839506172839,0,0,0.06172839506172839,12.345679012345679,0)" xlink:href="#be"/><use transform="matrix(0.06172839506172839,0,0,0.06172839506172839,24.691358024691358,0)" xlink:href="#aV"/><use transform="matrix(0.06172839506172839,0,0,0.06172839506172839,37.03703703703704,0)" xlink:href="#aY"/></g><g id="X"><use transform="matrix(0.06172839506172839,0,0,0.06172839506172839,0,0)" xlink:href="#bf"/><use transform="matrix(0.06172839506172839,0,0,0.06172839506172839,14.814814814814813,0)" xlink:href="#aV"/><use transform="matrix(0.06172839506172839,0,0,0.06172839506172839,27.160493827160494,0)" xlink:href="#aG"/><use transform="matrix(0.06172839506172839,0,0,0.06172839506172839,32.03703703703704,0)" xlink:href="#aV"/><use transform="matrix(0.06172839506172839,0,0,0.06172839506172839,44.382716049382715,0)" xlink:href="#aK"/><use transform="matrix(0.06172839506172839,0,0,0.06172839506172839,56.72839506172839,0)" xlink:href="#aI"/><use transform="matrix(0.06172839506172839,0,0,0.06172839506172839,67.8395061728395,0)" xlink:href="#aL"/><use transform="matrix(0.06172839506172839,0,0,0.06172839506172839,80.18518518518519,0)" xlink:href="#aT"/></g><path fill="#333" d="M63-220v92h138v28H63V0H30v-248h175v28H63" id="bu"/><path fill="#333" d="M194 0L95-120 63-95V0H30v-248h33v124l119-124h40L117-140 236 0h-42" id="bv"/><g id="Y"><use transform="matrix(0.049382716049382706,0,0,0.049382716049382706,0,0)" xlink:href="#aJ"/><use transform="matrix(0.049382716049382706,0,0,0.049382716049382706,11.85185185185185,0)" xlink:href="#aW"/><use transform="matrix(0.049382716049382706,0,0,0.049382716049382706,21.728395061728392,0)" xlink:href="#bu"/><use transform="matrix(0.049382716049382706,0,0,0.049382716049382706,32.5432098765432,0)" xlink:href="#be"/><use transform="matrix(0.049382716049382706,0,0,0.049382716049382706,42.419753086419746,0)" xlink:href="#aT"/><use transform="matrix(0.049382716049382706,0,0,0.049382716049382706,48.29629629629629,0)" xlink:href="#bv"/><use transform="matrix(0.049382716049382706,0,0,0.049382716049382706,60.14814814814814,0)" xlink:href="#aL"/><use transform="matrix(0.049382716049382706,0,0,0.049382716049382706,70.02469135802468,0)" xlink:href="#br"/><use transform="matrix(0.049382716049382706,0,0,0.049382716049382706,78.91358024691357,0)" xlink:href="#bg"/></g><path fill="#333" d="M240 0l2-218c-23 76-54 145-80 218h-23L58-218 59 0H30v-248h44l77 211c21-75 51-140 76-211h43V0h-30" id="bw"/><g id="Z"><use transform="matrix(0.049382716049382706,0,0,0.049382716049382706,0,0)" xlink:href="#bs"/><use transform="matrix(0.049382716049382706,0,0,0.049382716049382706,4.93827160493827,0)" xlink:href="#bc"/><use transform="matrix(0.049382716049382706,0,0,0.049382716049382706,16.79012345679012,0)" xlink:href="#bw"/></g><path fill="#333" d="M233-177c-1 41-23 64-60 70L243 0h-38l-65-103H63V0H30v-248c88 3 205-21 203 71zM63-129c60-2 137 13 137-47 0-61-80-42-137-45v92" id="bx"/><g id="aa"><use transform="matrix(0.049382716049382706,0,0,0.049382716049382706,0,0)" xlink:href="#bx"/><use transform="matrix(0.049382716049382706,0,0,0.049382716049382706,12.790123456790122,0)" xlink:href="#be"/><use transform="matrix(0.049382716049382706,0,0,0.049382716049382706,22.666666666666664,0)" xlink:href="#aG"/><use transform="matrix(0.049382716049382706,0,0,0.049382716049382706,26.567901234567895,0)" xlink:href="#aL"/></g><g id="ab"><use transform="matrix(0.049382716049382706,0,0,0.049382716049382706,0,0)" xlink:href="#aJ"/><use transform="matrix(0.049382716049382706,0,0,0.049382716049382706,11.85185185185185,0)" xlink:href="#aW"/><use transform="matrix(0.049382716049382706,0,0,0.049382716049382706,21.728395061728392,0)" xlink:href="#bu"/><use transform="matrix(0.049382716049382706,0,0,0.049382716049382706,32.5432098765432,0)" xlink:href="#be"/><use transform="matrix(0.049382716049382706,0,0,0.049382716049382706,42.419753086419746,0)" xlink:href="#aT"/><use transform="matrix(0.049382716049382706,0,0,0.049382716049382706,48.29629629629629,0)" xlink:href="#bb"/><use transform="matrix(0.049382716049382706,0,0,0.049382716049382706,64.69135802469135,0)" xlink:href="#aL"/><use transform="matrix(0.049382716049382706,0,0,0.049382716049382706,74.5679012345679,0)" xlink:href="#aF"/><use transform="matrix(0.049382716049382706,0,0,0.049382716049382706,84.44444444444444,0)" xlink:href="#bc"/><use transform="matrix(0.049382716049382706,0,0,0.049382716049382706,96.29629629629629,0)" xlink:href="#bd"/><use transform="matrix(0.049382716049382706,0,0,0.049382716049382706,106.17283950617283,0)" xlink:href="#bd"/></g></defs></g></svg>